<?xml version="1.0" encoding="UTF-8"?>
<svg version="1.1" xmlns="http://www.w3.org/2000/svg" width="545" height="266">
<path d="M0 0 C5.33133919 0.87240096 8.48989823 4.03683393 12.4375 7.5625 C13.0665625 8.06394531 13.695625 8.56539062 14.34375 9.08203125 C17.23661484 11.55870563 18.38761485 13.34761014 19.25 17.0625 C18.83470296 22.51327368 15.82658166 27.16936001 13.30859375 31.90625 C11.00735691 36.28381691 9.32977003 40.85032816 7.6171875 45.484375 C6.50300657 48.39157558 5.26312129 51.18408397 3.9375 54 C1.44848596 59.34706172 -0.51920219 64.82842229 -2.44921875 70.3984375 C-2.81660156 71.44257812 -3.18398438 72.48671875 -3.5625 73.5625 C-3.76875 74.4596875 -3.975 75.356875 -4.1875 76.28125 C-6.40537393 79.96090448 -9.90060354 80.49883339 -13.875 81.6875 C-18.79763439 83.23234709 -23.23903246 84.6456696 -27.5625 87.5625 C-26.77875 88.160625 -25.995 88.75875 -25.1875 89.375 C-21.29621978 93.16706911 -21.16828235 98.39978771 -20.5625 103.5625 C-20.05460937 102.89863281 -19.54671875 102.23476562 -19.0234375 101.55078125 C-9.01037424 88.70630872 -9.01037424 88.70630872 -2.0625 87.5 C2.56660782 87.23592338 4.9273261 88.4512095 8.4375 91.5625 C13.37693142 96.28240114 14.276974 99.99552727 14.4375 106.5625 C9.62826498 109.80428064 4.78880739 112.98107609 -0.125 116.0625 C-8.42279793 120.72401574 -8.42279793 120.72401574 -14.5625 127.5625 C-13.66789062 127.645 -12.77328125 127.7275 -11.8515625 127.8125 C-6.01869404 128.65453815 -0.50435633 130.68928686 5.0625 132.5625 C6.2572998 132.96331787 7.45209961 133.36413574 8.68310547 133.77709961 C18.71598481 137.20369525 28.45184828 141.11243858 38.09863281 145.50244141 C40.31459227 146.50679381 42.54164818 147.48067744 44.7734375 148.44921875 C53.06816874 152.11871054 60.83579365 156.43694672 68.5625 161.1875 C69.43970703 161.72600586 70.31691406 162.26451172 71.22070312 162.81933594 C76.34616127 166.04099612 80.94639305 169.51140519 85.4375 173.5625 C86.18257812 174.17996094 86.92765625 174.79742187 87.6953125 175.43359375 C88.31148437 175.95050781 88.92765625 176.46742188 89.5625 177 C90.18382812 177.51433594 90.80515625 178.02867187 91.4453125 178.55859375 C96.76791946 183.91251016 99.04550903 187.67340126 99.0234375 195.3984375 C98.99507812 196.31882813 98.96671875 197.23921875 98.9375 198.1875 C98.94007813 199.115625 98.94265625 200.04375 98.9453125 201 C98.87420322 205.96342783 98.69599799 209.56196781 95.4375 213.5625 C92.9008552 215.55557806 91.32220119 215.56890549 88.0625 215.75 C83.33456124 214.20119248 82.43537667 212.0540938 79.97265625 207.91015625 C78.09163229 205.03357763 75.94032174 203.140232 73.24609375 201.046875 C71.4375 199.5625 71.4375 199.5625 69.08984375 197.18359375 C44.50475753 172.88816982 9.9965962 158.05454706 -21.5625 145.5625 C-21.50191406 146.31233154 -21.44132812 147.06216309 -21.37890625 147.8347168 C-21.10147483 151.30607738 -20.83195688 154.77801166 -20.5625 158.25 C-20.46710938 159.42884766 -20.37171875 160.60769531 -20.2734375 161.82226562 C-17.70864642 195.2561493 -17.70864642 195.2561493 -24.5625 204.5625 C-27.75641365 207.46605786 -29.82335621 208.43051004 -34.0625 209.1875 C-45.54040205 208.59038371 -57.02327398 200.68166648 -64.5625 192.5625 C-66.58916898 190.25113228 -68.5872223 187.91789987 -70.5625 185.5625 C-76.74536575 191.29996233 -76.74536575 191.29996233 -81.875 197.9375 C-84.34794798 201.78430796 -86.43471706 203.13394248 -90.6875 204.75 C-95.28855365 205.71473706 -99.88799253 206.32251607 -104.5625 205.5625 C-106.82297269 203.99411036 -107.46124902 203.11243181 -107.9609375 200.3984375 C-107.901937 194.20338528 -106.86768284 189.2888669 -104.5625 183.5625 C-104.17578125 182.50804687 -103.7890625 181.45359375 -103.390625 180.3671875 C-102.97296875 179.27664062 -102.5553125 178.18609375 -102.125 177.0625 C-101.73441406 176.0415625 -101.34382813 175.020625 -100.94140625 173.96875 C-99.5625 171.5625 -99.5625 171.5625 -97.46484375 170.65625 C-96.52318359 170.60984375 -96.52318359 170.60984375 -95.5625 170.5625 C-94.5625 171.5625 -94.5625 171.5625 -94.4375 175.25 C-94.47556302 178.77082979 -94.87068705 182.10343525 -95.5625 185.5625 C-91.28206396 184.06820363 -89.51462908 180.98027615 -87.3125 177.25 C-86.92626465 176.60063477 -86.5400293 175.95126953 -86.14208984 175.28222656 C-81.14883025 166.52619648 -77.8152595 157.07230383 -74.5625 147.5625 C-74.2015625 146.52222656 -73.840625 145.48195312 -73.46875 144.41015625 C-70.89526626 136.05920152 -70.3726052 127.22586034 -69.5625 118.5625 C-76.10182667 122.30241948 -82.53837148 126.09131924 -88.72265625 130.3984375 C-93.31113303 133.3015502 -98.32576501 133.01544976 -103.5625 132.5625 C-107.48709815 131.50671756 -111.07368307 129.88092258 -113.5625 126.5625 C-114.77026206 122.93921381 -114.96290892 120.36638473 -114.5625 116.5625 C-112.8125 114.1875 -112.8125 114.1875 -109.5625 112.5625 C-107.877165 112.45663006 -106.18845266 112.40127013 -104.5 112.375 C-96.24985795 112.00513062 -89.41585024 108.20343958 -82.1015625 104.69140625 C-76.01740519 101.78050553 -70.37546228 99.4610031 -63.5625 100.5625 C-59.05934435 102.85656042 -56.8012374 105.08502519 -54.5625 109.5625 C-53.83203125 113.11328125 -53.83203125 113.11328125 -53.375 116.875 C-53.21644531 118.12925781 -53.05789063 119.38351563 -52.89453125 120.67578125 C-52.78496094 121.62839844 -52.67539062 122.58101563 -52.5625 123.5625 C-50.609375 123.04166667 -48.65625 122.52083333 -46.703125 122 C-44.5625 121.5625 -44.5625 121.5625 -40.5625 121.5625 C-40.3813349 107.09517275 -45.02820073 93.16539782 -49.5625 79.5625 C-50.66874291 70.85083705 -47.30946149 65.71927102 -42.5625 58.5625 C-43.37654297 58.09070313 -43.37654297 58.09070313 -44.20703125 57.609375 C-52.09381749 52.89151368 -52.09381749 52.89151368 -53.5625 49.5625 C-53.5625 45.38776839 -53.24550464 43.32585812 -50.4375 40.1875 C-46.33644164 37.86951049 -43.00834483 37.04174421 -38.32421875 38.0390625 C-32.79089583 39.73160834 -27.29494939 41.77551621 -24.125 46.875 C-23.26443289 50.98659839 -23.49599278 54.59356359 -25.52734375 58.34375 C-26.48435775 59.78778535 -27.51769191 61.18065705 -28.5625 62.5625 C-24.52606147 61.06416225 -22.87843907 60.17499117 -20.87158203 56.28442383 C-20.41494583 54.9537592 -19.98231097 53.61468635 -19.5703125 52.26953125 C-19.21681229 51.21048836 -19.21681229 51.21048836 -18.85617065 50.13005066 C-18.11203106 47.88469586 -17.39955123 45.63071095 -16.6875 43.375 C-16.18695471 41.84632952 -15.68437203 40.31832455 -15.1796875 38.79101562 C-13.95022785 35.05547315 -12.74904944 31.3118822 -11.5625 27.5625 C-12.58730469 28.07941406 -13.61210937 28.59632812 -14.66796875 29.12890625 C-16.02829136 29.79499525 -17.38898841 30.46031992 -18.75 31.125 C-19.42353516 31.46724609 -20.09707031 31.80949219 -20.79101562 32.16210938 C-23.91156512 33.66910645 -25.88927053 34.60589491 -29.39941406 34.37963867 C-33.97078002 32.65273553 -37.33882714 29.14143477 -40.5625 25.5625 C-41.9375 22.375 -41.9375 22.375 -41.5625 19.5625 C-37.8420694 15.19099405 -33.65363083 12.62942138 -28.6875 9.9375 C-27.66462891 9.36515625 -27.66462891 9.36515625 -26.62109375 8.78125 C-17.90858164 3.96862427 -9.80864597 1.54873357 0 0 Z M-54.5625 128.5625 C-54.78164063 129.4390625 -55.00078125 130.315625 -55.2265625 131.21875 C-55.54367187 132.4871875 -55.86078125 133.755625 -56.1875 135.0625 C-56.44720581 136.10676147 -56.44720581 136.10676147 -56.7121582 137.17211914 C-57.83250524 141.67044556 -58.97238128 146.16317305 -60.12890625 150.65234375 C-60.39687012 151.70164063 -60.66483398 152.7509375 -60.94091797 153.83203125 C-61.47031083 155.90487425 -62.00430933 157.97654781 -62.54345703 160.046875 C-64.03089 165.8997057 -65.04590883 171.54390162 -65.5625 177.5625 C-57.17453386 183.82308343 -50.06132306 186.6499774 -39.5625 186.5625 C-39.53730315 182.15576518 -39.51941201 177.74907133 -39.50756836 173.34228516 C-39.50261786 171.85106677 -39.49585574 170.35985301 -39.48706055 168.86865234 C-39.46199679 164.50166061 -39.47267358 160.13717939 -39.53436279 155.77050781 C-39.55336879 154.27905229 -39.56410699 152.78747185 -39.56719971 151.29589844 C-39.57829622 149.10175653 -39.62966749 146.91198362 -39.69140625 144.71875 C-39.71404541 143.43806641 -39.73668457 142.15738281 -39.76000977 140.83789062 C-40.27489612 137.32188506 -40.27489612 137.32188506 -43.41381836 135.21679688 C-45.53549501 134.10208175 -47.66883927 133.00933036 -49.8125 131.9375 C-52.5625 130.5625 -52.5625 130.5625 -54.5625 128.5625 Z " fill="#188DD4" transform="translate(444.5625,50.4375)"/>
<path d="M0 0 C2.46620095 2.19265325 3.26778233 3.40001775 3.92475891 6.6665802 C4.06393557 10.30541805 3.97862586 13.87751462 3.81396484 17.51538086 C3.77843175 18.85194125 3.74605465 20.18858893 3.71669006 21.52529907 C3.63130905 25.02842437 3.50333381 28.52872073 3.36621094 32.03015137 C3.2336784 35.60913961 3.14178311 39.18915065 3.04638672 42.76928711 C2.85355629 49.78253138 2.61567125 56.79362429 2.34912109 63.80444336 C3.28884766 64.09577148 4.22857422 64.38709961 5.19677734 64.68725586 C8.59912726 65.8930453 10.21795106 66.90605211 12.34912109 69.80444336 C12.41162109 71.74194336 12.41162109 71.74194336 11.34912109 73.80444336 C9.70423816 75.49261269 8.03574567 77.15797651 6.34912109 78.80444336 C4.30045153 81.80428094 3.15114054 84.29189525 2.34912109 87.80444336 C3.48349609 87.51569336 4.61787109 87.22694336 5.78662109 86.92944336 C35.29382967 80.43414587 35.29382967 80.43414587 45.06396484 85.10131836 C49.21921004 88.19821905 51.69471565 91.98659304 52.87255859 97.05834961 C53.42371243 105.02383478 49.76976476 111.84383124 46.34912109 118.80444336 C45.93919922 119.67456055 45.52927734 120.54467773 45.10693359 121.44116211 C38.29975224 134.90754261 28.47914625 147.14843442 19.37255859 159.13256836 C15.96054817 163.63800297 12.65233037 168.21889065 9.34912109 172.80444336 C8.90938965 173.26471924 8.4696582 173.72499512 8.01660156 174.19921875 C2.95495578 179.95027395 3.754885 186.31030956 3.97412109 193.61694336 C4.00517944 195.59355957 4.00517944 195.59355957 4.03686523 197.61010742 C4.0934202 201.0127674 4.18338086 204.41350856 4.2880249 207.81500244 C4.34708932 209.73828375 4.40021307 211.66174467 4.453125 213.58520508 C4.73812439 223.60340644 5.02655582 233.59867575 6.11962891 243.56616211 C7.12365723 253.35864258 7.12365723 253.35864258 4.47412109 258.30444336 C1.98196634 261.23639013 1.29661651 261.71308705 -2.48681641 262.07788086 C-18.90167093 262.54894732 -29.35520861 255.17054663 -41.07275391 244.62475586 C-45.15765825 240.67806257 -48.502405 236.52715422 -51.65087891 231.80444336 C-55.03028218 233.94747958 -58.09983574 236.14044786 -61.08837891 238.80444336 C-67.028269 243.93848403 -72.61255219 246.98809582 -80.65087891 246.80444336 C-83.13182351 246.34467197 -85.26590443 245.6670937 -87.65087891 244.80444336 C-87.93212891 242.57788086 -87.93212891 242.57788086 -87.65087891 239.80444336 C-85.74462891 237.59350586 -85.74462891 237.59350586 -83.15087891 235.42944336 C-82.22662109 234.64311523 -81.30236328 233.85678711 -80.35009766 233.04663086 C-79.45935547 232.30670898 -78.56861328 231.56678711 -77.65087891 230.80444336 C-76.41829926 229.72499479 -75.18885391 228.64195098 -73.96337891 227.55444336 C-71.41044189 225.32577052 -68.84574488 223.11119594 -66.27587891 220.90209961 C-53.9883194 210.32792562 -42.14564785 199.40619856 -30.62179565 188.00552368 C-29.52206198 186.91894399 -28.41997033 185.83474531 -27.31546021 184.75302124 C-25.74897423 183.21654106 -24.19293774 181.67016759 -22.63916016 180.12084961 C-21.72690674 179.21794189 -20.81465332 178.31503418 -19.87475586 177.38476562 C-16.08621602 172.98899468 -15.38470108 169.52726671 -15.65087891 163.80444336 C-16.66408203 163.47573242 -16.66408203 163.47573242 -17.69775391 163.14038086 C-21.95240721 161.6278885 -25.0493892 160.40593306 -28.27587891 157.17944336 C-30.21991301 152.40772328 -31.20631748 148.83509605 -29.65087891 143.80444336 C-27.23959422 140.25177369 -24.21276905 137.26687735 -21.15478516 134.27319336 C-18.64758786 132.06696694 -18.64758786 132.06696694 -17.65087891 129.80444336 C-19.29056641 129.61881836 -19.29056641 129.61881836 -20.96337891 129.42944336 C-24.65087891 128.80444336 -24.65087891 128.80444336 -27.65087891 126.80444336 C-27.40087891 123.49194336 -27.40087891 123.49194336 -26.65087891 119.80444336 C-24.60400391 118.07397461 -24.60400391 118.07397461 -22.65087891 116.80444336 C-24.25869783 117.56762945 -25.86201028 118.34031394 -27.46337891 119.11694336 C-28.35669922 119.54620117 -29.25001953 119.97545898 -30.17041016 120.41772461 C-33.81774002 122.45678304 -35.32158328 123.81655648 -36.65087891 127.80444336 C-38.33084465 139.47914201 -33.97231017 150.77422926 -30.65087891 161.80444336 C-32.65087891 163.80444336 -32.65087891 163.80444336 -35.43994141 164.11303711 C-43.39476399 163.34852253 -50.72192694 156.73420515 -55.68212891 150.75756836 C-62.08087808 141.15944461 -66.36705964 130.08808461 -70.33837891 119.30444336 C-70.60666504 118.59288086 -70.87495117 117.88131836 -71.15136719 117.14819336 C-71.85009766 115.14819336 -71.85009766 115.14819336 -72.65087891 111.80444336 C-70.65087891 108.80444336 -70.65087891 108.80444336 -68.80322266 108.40600586 C-58.43765851 108.51569437 -51.99181012 111.50351722 -44.65087891 118.80444336 C-44.17650391 117.69069336 -43.70212891 116.57694336 -43.21337891 115.42944336 C-37.04475404 103.41016398 -27.25556068 97.69933692 -15.65087891 91.80444336 C-15.65087891 91.14444336 -15.65087891 90.48444336 -15.65087891 89.80444336 C-16.44751953 89.63428711 -17.24416016 89.46413086 -18.06494141 89.28881836 C-28.24626182 86.96024386 -33.42649237 83.7768519 -39.46337891 75.24194336 C-40.84142918 72.41331386 -40.548022 71.69116908 -39.65087891 68.80444336 C-38.66087891 68.75545898 -37.67087891 68.70647461 -36.65087891 68.65600586 C-29.79564561 68.28041229 -23.25456026 67.82597847 -16.65087891 65.80444336 C-15.7480114 62.71843254 -15.52924661 59.9708333 -15.53735352 56.76049805 C-15.53742905 55.75976257 -15.53750458 54.7590271 -15.5375824 53.72796631 C-15.54274368 52.65492249 -15.54790497 51.58187866 -15.55322266 50.47631836 C-15.5546376 49.3721759 -15.55605255 48.26803345 -15.55751038 47.13043213 C-15.56310633 43.60507494 -15.57565812 40.07978134 -15.58837891 36.55444336 C-15.59339443 34.16381928 -15.59795724 31.7731942 -15.60205078 29.38256836 C-15.61307444 23.52317168 -15.62980857 17.66381206 -15.65087891 11.80444336 C-16.26503662 11.6789209 -16.87919434 11.55339844 -17.51196289 11.42407227 C-18.72348022 11.16762939 -18.72348022 11.16762939 -19.95947266 10.90600586 C-20.75925537 10.7392334 -21.55903809 10.57246094 -22.38305664 10.40063477 C-25.16004049 9.67058906 -27.31692856 8.46079522 -29.65087891 6.80444336 C-29.65087891 4.55444336 -29.65087891 4.55444336 -28.65087891 1.80444336 C-20.7562866 -3.9233754 -8.2797918 -5.72749513 0 0 Z M11.09912109 101.74194336 C10.36693359 101.9243457 9.63474609 102.10674805 8.88037109 102.29467773 C5.32358077 102.96877946 5.32358077 102.96877946 2.34912109 104.80444336 C1.59729457 108.13353925 1.59729457 108.13353925 2.34912109 111.80444336 C4.25608911 113.43774626 6.16897334 114.52637533 8.40380859 115.66381836 C10.34912109 116.80444336 10.34912109 116.80444336 12.34912109 119.80444336 C12.47412109 122.49194336 12.47412109 122.49194336 12.34912109 124.80444336 C11.71103516 125.11897461 11.07294922 125.43350586 10.41552734 125.75756836 C9.58923828 126.18553711 8.76294922 126.61350586 7.91162109 127.05444336 C7.08791016 127.47209961 6.26419922 127.88975586 5.41552734 128.32006836 C3.21818557 129.63479239 3.21818557 129.63479239 2.43896484 131.85131836 C2.40931641 132.49584961 2.37966797 133.14038086 2.34912109 133.80444336 C3.00912109 134.46444336 3.66912109 135.12444336 4.34912109 135.80444336 C12.17435841 131.7800356 15.52248824 125.08849554 19.09912109 117.42944336 C19.49744141 116.61733398 19.89576172 115.80522461 20.30615234 114.96850586 C22.73565753 109.82948473 23.95771084 105.47989198 24.34912109 99.80444336 C19.67368951 99.51913159 15.5812393 100.57707631 11.09912109 101.74194336 Z M-16.65087891 197.80444336 C-16.98087891 198.79444336 -17.31087891 199.78444336 -17.65087891 200.80444336 C-18.97046318 201.49792701 -20.30609769 202.16118159 -21.65087891 202.80444336 C-23.5321449 204.48228043 -23.5321449 204.48228043 -25.27587891 206.36694336 C-28.45643446 209.70722114 -28.45643446 209.70722114 -30.65087891 210.80444336 C-30.65087891 211.46444336 -30.65087891 212.12444336 -30.65087891 212.80444336 C-31.20259766 213.02874023 -31.75431641 213.25303711 -32.32275391 213.48413086 C-35.36299634 215.20829519 -37.46513564 217.42960158 -39.90087891 219.92944336 C-40.79291016 220.83952148 -41.68494141 221.74959961 -42.60400391 222.68725586 C-43.27947266 223.38592773 -43.95494141 224.08459961 -44.65087891 224.80444336 C-37.77640482 231.99526493 -29.20998334 236.95348239 -19.65087891 239.80444336 C-18.33087891 239.80444336 -17.01087891 239.80444336 -15.65087891 239.80444336 C-15.65087891 225.94444336 -15.65087891 212.08444336 -15.65087891 197.80444336 C-15.98087891 197.80444336 -16.31087891 197.80444336 -16.65087891 197.80444336 Z " fill="#198DD4" transform="translate(87.65087890625,3.195556640625)"/>
<path d="M0 0 C4.65065184 3.4381914 7.7549967 6.1587697 9.84765625 11.67578125 C11.17988516 21.00138363 9.25550339 27.32454575 3.66015625 34.80078125 C0.59635115 38.71788295 0.59635115 38.71788295 -2.83984375 39.86328125 C-3.54283806 41.17782346 -4.20395197 42.51499943 -4.83984375 43.86328125 C-6.00881712 45.31259665 -7.21923683 46.72927356 -8.46484375 48.11328125 C-9.09648437 48.8196875 -9.728125 49.52609375 -10.37890625 50.25390625 C-10.86101562 50.785 -11.343125 51.31609375 -11.83984375 51.86328125 C-9.80535272 54.10400236 -9.80535272 54.10400236 -6.40234375 55.61328125 C-3.77875392 57.11483266 -2.65649776 58.09516 -0.71484375 60.55078125 C0.68579499 65.85319934 -1.45783999 70.09927372 -3.83984375 74.86328125 C-8.0923373 76.1818839 -12.47872149 76.97971693 -16.83984375 77.86328125 C-17.85433594 78.07339844 -18.86882812 78.28351563 -19.9140625 78.5 C-30.43289958 80.48018161 -41.46784757 82.03065938 -50.83984375 75.86328125 C-53.46484375 73.55078125 -53.46484375 73.55078125 -54.83984375 70.86328125 C-54.83436465 66.31562922 -54.0593645 63.69941545 -50.9609375 60.46875 C-49.74602582 59.31562478 -48.51743835 58.17678015 -47.27734375 57.05078125 C-45.9899221 55.8240456 -44.70605435 54.59356934 -43.42578125 53.359375 C-42.80541992 52.76366699 -42.18505859 52.16795898 -41.54589844 51.55419922 C-35.06235832 45.12818336 -29.95843801 37.38121657 -24.83984375 29.86328125 C-25.34733154 30.13591797 -25.85481934 30.40855469 -26.37768555 30.68945312 C-46.23324771 41.18578554 -46.23324771 41.18578554 -56.83984375 38.86328125 C-63.47159908 36.72627083 -67.07326401 32.9394404 -70.74609375 27.14453125 C-71.91216655 24.71243655 -72.35610114 22.50526011 -72.83984375 19.86328125 C-68.75115772 18.49205212 -64.66177527 17.12292493 -60.57177734 15.75561523 C-59.18487248 15.29165297 -57.79814868 14.82714905 -56.41162109 14.36206055 C-54.40120738 13.68780988 -52.39025666 13.01520104 -50.37890625 12.34375 C-49.72037659 12.12381882 -49.06184692 11.90388763 -48.38336182 11.67729187 C-44.77022733 10.47846031 -41.14716767 9.35083153 -37.48828125 8.30078125 C-31.56830628 6.56298215 -25.96756473 4.07103803 -20.33984375 1.56054688 C-13.59871971 -1.27809833 -7.01205212 -2.80674989 0 0 Z " fill="#198DD5" transform="translate(301.83984375,103.13671875)"/>
<path d="M0 0 C4.74615633 0.29030544 8.03088838 1.88312887 12.0625 4.3125 C13.56490234 5.20388672 13.56490234 5.20388672 15.09765625 6.11328125 C20.79889767 9.81947183 26.91354164 14.04537523 28.453125 21.06640625 C28.73409351 26.67574187 27.0312221 31.30084751 24.875 36.421875 C23.96095653 39.11503879 23.8375808 41.17796642 24 44 C31.13282202 33.9248889 38.02643225 23.71914905 44.45703125 13.1796875 C46 11 46 11 49 9 C49.66 9.33 50.32 9.66 51 10 C50.44254576 19.05863135 48.42010589 27.67419884 46.35400391 36.4831543 C45.75749001 39.03051455 45.1729333 41.58039711 44.58984375 44.13085938 C42.69291861 52.34891265 40.66372758 60.51580157 38.328125 68.62109375 C38.12483582 69.33822037 37.92154663 70.05534698 37.71209717 70.79420471 C36.24245063 75.75754937 36.24245063 75.75754937 34 78 C26.39297014 76.85894552 14.10609782 74.96698968 9.23828125 68.75 C5.32696615 60.06367245 2.82964725 50.89752892 0.75 41.625 C0.58701416 40.90094971 0.42402832 40.17689941 0.25610352 39.4309082 C-1.6634081 30.47828968 -2.18139172 21.70659368 -2.1875 12.5625 C-2.19974609 11.57056641 -2.21199219 10.57863281 -2.22460938 9.55664062 C-2.22750977 8.13834961 -2.22750977 8.13834961 -2.23046875 6.69140625 C-2.23457764 5.83748291 -2.23868652 4.98355957 -2.24291992 4.10375977 C-2 2 -2 2 0 0 Z " fill="#188CD4" transform="translate(169,142)"/>
<path d="M0 0 C10.09642119 0.11755212 21.37523027 2.08682809 29.0625 9.1875 C30.07983398 12.06884766 30.07983398 12.06884766 30.80859375 15.6015625 C31.01313171 16.55990746 31.01313171 16.55990746 31.22180176 17.53761292 C31.66348784 19.62632296 32.08204632 21.71892364 32.5 23.8125 C32.79959319 25.25587931 33.10046646 26.69899348 33.40258789 28.1418457 C34.16231229 31.78951492 34.90260625 35.440841 35.63818359 39.09344482 C36.28702617 42.29556505 36.95704486 45.4932267 37.625 48.69140625 C38.08466402 50.91899666 38.54307594 53.14684595 39 55.375 C39.21132568 56.39996582 39.42265137 57.42493164 39.64038086 58.48095703 C39.82995361 59.4295459 40.01952637 60.37813477 40.21484375 61.35546875 C40.37976318 62.17297607 40.54468262 62.9904834 40.71459961 63.83276367 C41.08369744 66.33097318 41.19131625 68.6659151 41.0625 71.1875 C39.42412655 72.82587345 37.56233422 72.35835921 35.3125 72.375 C34.45140625 72.38917969 33.5903125 72.40335937 32.703125 72.41796875 C26.32444842 71.86124994 23.14813119 68.80542281 19.1640625 64.09765625 C10.42515241 51.99637741 5.49636326 36.96248388 0.0625 23.1875 C-0.42259033 21.97707031 -0.42259033 21.97707031 -0.91748047 20.7421875 C-1.79013298 18.56171114 -2.64810598 16.37615643 -3.5 14.1875 C-3.97566406 12.970625 -4.45132812 11.75375 -4.94140625 10.5 C-5.93886873 7.1829483 -6.2190562 4.62760487 -5.9375 1.1875 C-4.2694093 -0.4805907 -2.28790027 0.01604418 0 0 Z " fill="#198DD4" transform="translate(353.9375,74.8125)"/>
<path d="M0 0 C1.38933344 0.13270239 2.77865568 0.26552204 4.16796875 0.3984375 C5.77591829 0.51217457 7.38399813 0.62408094 8.9921875 0.734375 C28.35868981 2.23549243 28.35868981 2.23549243 34.1875 8.60546875 C36.39258495 11.71520394 37.9027863 14.77627396 39.41796875 18.2734375 C40.19914062 20.03300781 40.19914062 20.03300781 40.99609375 21.828125 C42.49093087 26.38239543 43.1737563 30.23581006 41.1015625 34.69140625 C36.64009962 40.3410394 32.86135141 43.80639845 25.48828125 44.98828125 C21.12684382 45.46947742 16.80221412 45.54679938 12.41796875 45.5234375 C11.67675781 45.52730469 10.93554688 45.53117187 10.171875 45.53515625 C6.66553842 45.52886121 3.5399591 45.34008871 0.16796875 44.3984375 C-0.89547302 41.78817133 -0.94249714 40.67828443 0.10546875 38.0234375 C2.94323363 34.41173675 6.40996787 31.99601056 10.16796875 29.3984375 C10.13003539 27.43975186 10.13003539 27.43975186 9.16796875 25.3984375 C6.49941151 24.12864316 6.49941151 24.12864316 3.23046875 23.2109375 C-3.84711102 20.70608292 -8.88744108 17.04034166 -13.83203125 11.3984375 C-14.97788665 7.96087131 -14.81851773 7.34892118 -13.26953125 4.2109375 C-9.80064165 -0.94041082 -5.78958409 -0.35384181 0 0 Z " fill="#188CD5" transform="translate(109.83203125,188.6015625)"/>
<path d="M0 0 C3.98843585 1.48406915 5.51947545 4.46658126 7.6875 8 C7.3575 6.02 7.0275 4.04 6.6875 2 C11.3125 -0.125 11.3125 -0.125 14.6875 1 C15.0175 1.66 15.3475 2.32 15.6875 3 C16.30625 2.484375 16.925 1.96875 17.5625 1.4375 C22.06851042 -0.63526479 25.89377283 0.22741873 30.6875 1 C30.6875 3.31 30.6875 5.62 30.6875 8 C29.6975 8 28.7075 8 27.6875 8 C27.3575 7.34 27.0275 6.68 26.6875 6 C25.02138095 5.957279 23.35367115 5.95936168 21.6875 6 C20.33131501 7.12534105 20.33131501 7.12534105 20.625 10.0625 C20.645625 11.031875 20.66625 12.00125 20.6875 13 C22.6675 13.66 24.6475 14.32 26.6875 15 C26.6875 14.34 26.6875 13.68 26.6875 13 C26.0275 13 25.3675 13 24.6875 13 C24.6875 12.01 24.6875 11.02 24.6875 10 C28.1525 9.505 28.1525 9.505 31.6875 9 C32.3475 9.99 33.0075 10.98 33.6875 12 C33.3575 12.66 33.0275 13.32 32.6875 14 C33.3475 14 34.0075 14 34.6875 14 C34.7147415 12.58344207 34.73400467 11.16672955 34.75 9.75 C34.76160156 8.96109375 34.77320313 8.1721875 34.78515625 7.359375 C34.69135306 5.09308998 34.31991063 3.1711105 33.6875 1 C45.0984589 -0.8630137 45.0984589 -0.8630137 50.6875 1 C50.52378906 1.55171875 50.36007813 2.1034375 50.19140625 2.671875 C49.62989586 5.26614007 49.59010992 7.59835411 49.625 10.25 C49.63402344 11.14203125 49.64304688 12.0340625 49.65234375 12.953125 C49.66394531 13.62859375 49.67554688 14.3040625 49.6875 15 C52.85027272 13.41861364 53.11843689 10.67403949 54.3125 7.4375 C54.98152344 5.64119141 54.98152344 5.64119141 55.6640625 3.80859375 C56.00179687 2.88175781 56.33953125 1.95492187 56.6875 1 C58.0075 1 59.3275 1 60.6875 1 C61.19410156 2.39025391 61.19410156 2.39025391 61.7109375 3.80859375 C62.15695313 5.00613281 62.60296875 6.20367187 63.0625 7.4375 C63.50335938 8.63246094 63.94421875 9.82742187 64.3984375 11.05859375 C65.35835236 14.10196898 65.35835236 14.10196898 67.6875 15 C68.0175 11.7 68.3475 8.4 68.6875 5 C67.6975 4.67 66.7075 4.34 65.6875 4 C65.6875 3.01 65.6875 2.02 65.6875 1 C68.875 0.625 68.875 0.625 72.6875 1 C74.8278498 2.81188028 76.07738302 4.65801167 77.6875 7 C78.0175 6.01 78.3475 5.02 78.6875 4 C78.0275 4 77.3675 4 76.6875 4 C76.6875 3.01 76.6875 2.02 76.6875 1 C79.74013664 0.01879536 81.63486336 0.01879536 84.6875 1 C84.543125 2.11375 84.39875 3.2275 84.25 4.375 C83.63953629 9.24126788 83.15764775 14.11846586 82.6875 19 C80.14839803 18.61479436 78.95998877 18.29902057 77.203125 16.37109375 C76.78546875 15.73300781 76.3678125 15.09492188 75.9375 14.4375 C75.50953125 13.79683594 75.0815625 13.15617188 74.640625 12.49609375 C74.32609375 12.00238281 74.0115625 11.50867188 73.6875 11 C73.708125 12.299375 73.72875 13.59875 73.75 14.9375 C73.77149454 16.29165633 73.75898199 17.64756083 73.6875 19 C72.6875 20 72.6875 20 70.25390625 20.1328125 C68.76697266 20.12894531 68.76697266 20.12894531 67.25 20.125 C66.26128906 20.12757813 65.27257812 20.13015625 64.25390625 20.1328125 C61.6875 20 61.6875 20 59.6875 19 C59.6875 17.68 59.6875 16.36 59.6875 15 C58.6975 15 57.7075 15 56.6875 15 C56.3575 16.32 56.0275 17.64 55.6875 19 C51.39086653 20.01097258 46.77011196 21.04130598 42.6875 19 C42.6875 14.38 42.6875 9.76 42.6875 5 C42.0275 4.67 41.3675 4.34 40.6875 4 C40.71070313 4.74765625 40.73390625 5.4953125 40.7578125 6.265625 C40.77585938 7.25046875 40.79390625 8.2353125 40.8125 9.25 C40.83570313 10.22453125 40.85890625 11.1990625 40.8828125 12.203125 C40.68415876 15.04784649 40.24863106 16.63646941 38.6875 19 C36.6875 19.8125 36.6875 19.8125 34.6875 20 C34.0275 19.67 33.3675 19.34 32.6875 19 C32.6875 18.34 32.6875 17.68 32.6875 17 C31.8625 17.515625 31.0375 18.03125 30.1875 18.5625 C25.56548256 20.46082859 23.52687965 20.17081766 18.6875 19 C16.30437297 17.10571954 15.0374441 15.69988821 13.6875 13 C13.0275 14.98 12.3675 16.96 11.6875 19 C7.48123966 17.49776416 5.94849979 14.71449966 3.6875 11 C3.6875 13.64 3.6875 16.28 3.6875 19 C-1.0625 20.125 -1.0625 20.125 -3.3125 19 C-2.6525 14.38 -1.9925 9.76 -1.3125 5 C-2.3025 4.67 -3.2925 4.34 -4.3125 4 C-4.3125 3.01 -4.3125 2.02 -4.3125 1 C-2.3125 0 -2.3125 0 0 0 Z M13.6875 4 C14.6875 7 14.6875 7 14.6875 7 Z " fill="#1986CA" transform="translate(148.3125,235)"/>
<path d="M0 0 C6.76592535 -0.28019666 10.59821975 1.05053591 16 5 C19.33012873 8.66314161 21.23845881 12.62265633 21.61328125 17.5703125 C20.18961912 23.21055354 14.39371858 26.60561513 10 30 C9.11957031 30.721875 8.23914063 31.44375 7.33203125 32.1875 C1.3843246 37 1.3843246 37 -1 37 C-1 37.66 -1 38.32 -1 39 C-2.68649389 40.61089244 -4.45064334 42.14123731 -6.25 43.625 C-7.22453125 44.44226563 -8.1990625 45.25953125 -9.203125 46.1015625 C-12 48 -12 48 -16 48 C-16.75889769 39.71821557 -14.75250316 33.74274625 -11.375 26.25 C-10.9207666 25.20392578 -10.4665332 24.15785156 -9.99853516 23.08007812 C-9.09501916 21.0026016 -8.18424039 18.92826606 -7.265625 16.85742188 C-5.86401639 13.69298762 -4.50281528 10.51302265 -3.15087891 7.32714844 C-2.11170292 4.87995111 -1.05663144 2.43970186 0 0 Z " fill="#198DD4" transform="translate(397,27)"/>
<path d="M0 0 C3.72117532 2.01358028 7.29973593 4.12169896 10.8203125 6.46875 C11.60312379 13.4022214 11.60312379 13.4022214 9.34375 16.48046875 C5.85760478 19.22729215 2.09438113 20.72979414 -1.9921875 22.40625 C-6.69729957 24.34182372 -10.9985053 26.19013043 -15.06640625 29.28515625 C-16.09378906 30.00574219 -17.12117187 30.72632813 -18.1796875 31.46875 C-19.1696875 31.13875 -20.1596875 30.80875 -21.1796875 30.46875 C-21.30923828 28.71111328 -21.30923828 28.71111328 -21.44140625 26.91796875 C-22.16255403 18.4755043 -22.95552769 11.26991544 -27.15625 3.73046875 C-28.32861577 1.13962988 -28.36883191 -0.7189713 -28.1796875 -3.53125 C-18.7507267 -8.10286736 -8.92679447 -4.29889857 0 0 Z " fill="#188CD3" transform="translate(210.1796875,87.53125)"/>
<path d="M0 0 C0 0.66 0 1.32 0 2 C0.61488281 2.25007812 1.22976563 2.50015625 1.86328125 2.7578125 C4.36859433 4.21428336 4.9860275 5.27589622 6.1875 7.875 C6.67283203 8.89207031 6.67283203 8.89207031 7.16796875 9.9296875 C9.72083619 16.28189288 9.95689349 22.30191395 7.3125 28.625 C4.13213827 35.08580477 0.04446568 40.51069883 -7 43 C-14.39163405 44.5051305 -21.26198371 44.6695888 -28 41 C-34.39062905 36.54898293 -38.36474082 31.73548689 -40 24 C-40.69986268 15.96503803 -39.61217757 10.72037411 -34.9375 4.0625 C-34.298125 3.381875 -33.65875 2.70125 -33 2 C-32.34 2 -31.68 2 -31 2 C-31 1.34 -31 0.68 -31 0 C-20.40917396 -6.31376168 -10.6920356 -7.12802373 0 0 Z M-29.8125 5.8125 C-33.98816857 11.89704563 -36.28316929 16.58205941 -35 24 C-32.98079613 29.51915726 -29.97449177 33.98992721 -24.9453125 37.125 C-19.65223195 39.50582338 -14.75246899 39.46689682 -9.25 37.8125 C-3.65772315 35.62421775 -0.37925213 33.18958244 2.3125 27.75 C4.45851718 22.36736674 5.30320555 18.04910306 2.9765625 12.60546875 C-0.34831773 6.36879947 -3.15935832 2.89576875 -9.890625 0.57421875 C-17.42797322 -1.47761493 -24.38815317 0.38815317 -29.8125 5.8125 Z " fill="#1480D7" transform="translate(536,9)"/>
<path d="M0 0 C2.9375 1 2.9375 1 5 2 C4.979375 2.969375 4.95875 3.93875 4.9375 4.9375 C4.64381501 7.87465895 4.64381501 7.87465895 6 9 C6.0928125 7.88625 6.0928125 7.88625 6.1875 6.75 C7.29022258 3.01770821 8.63157265 1.90389372 12 0 C15.90157776 0 18.1478075 0.41692092 21.375 2.625 C23.5897648 5.86196394 23.93360525 8.08270987 24 12 C23.22378976 14.52513964 22.20895381 16.63045054 21 19 C21.66 19.33 22.32 19.66 23 20 C23 20.99 23 21.98 23 23 C16.06930884 22.75247532 12.05970767 20.75688228 7 16 C6.67 15.34 6.34 14.68 6 14 C5.67 14.804375 5.34 15.60875 5 16.4375 C3 19 3 19 -0.8125 20 C-4.89250809 20.27852454 -7.55774277 19.26685232 -11 17 C-12.86394552 13.27210896 -12.55445363 9.05962028 -12 5 C-8.66749769 -0.04924592 -5.88116868 -0.73514609 0 0 Z M-7 7 C-7.33333333 10 -7.33333333 10 -7 13 C-6.34 13.66 -5.68 14.32 -5 15 C-3.68 15 -2.36 15 -1 15 C-1.0928125 13.824375 -1.0928125 13.824375 -1.1875 12.625 C-1.125625 11.75875 -1.06375 10.8925 -1 10 C-0.01 9.34 0.98 8.68 2 8 C1.34 7.01 0.68 6.02 0 5 C-3.45795783 4.56775527 -4.47975609 4.47975609 -7 7 Z M13 5 C10.67516215 6.88375675 10.67516215 6.88375675 10.8125 10 C10.79920391 12.92386603 10.79920391 12.92386603 12 15 C13.65 15 15.3 15 17 15 C18.4783226 12.04335481 18.06032783 9.25770263 18 6 C15.60280568 5.32041397 15.60280568 5.32041397 13 5 Z " fill="#2793D4" transform="translate(245,235)"/>
<path d="M0 0 C10.97592998 -0.63019694 10.97592998 -0.63019694 15.25 2 C15.8275 2.66 16.405 3.32 17 4 C17.474375 3.34 17.94875 2.68 18.4375 2 C21.70620384 -0.55118349 23.81423796 -0.64013378 27.875 -0.453125 C30 0 30 0 32.5 2.1875 C34.0183432 5.0343935 34.9214279 6.77854374 35 10 C33.73121941 13.52439052 32.5638503 15.52758488 29.6875 17.9375 C26.25253178 19.29551069 24.50468176 19.11851546 21 18 C18.625 15.9375 18.625 15.9375 17 14 C16.401875 14.639375 15.80375 15.27875 15.1875 15.9375 C10.65329837 18.87139517 6.30164592 18.81430312 1 19 C0.34 18.01 -0.32 17.02 -1 16 C-0.67 15.34 -0.34 14.68 0 14 C0.07116382 11.62597499 0.08409085 9.24999323 0.0625 6.875 C0.05347656 5.59367188 0.04445313 4.31234375 0.03515625 2.9921875 C0.02355469 2.00476563 0.01195313 1.01734375 0 0 Z M6 4 C6 7.3 6 10.6 6 14 C7.65 13.67 9.3 13.34 11 13 C11.68493373 10.14221967 11.68493373 10.14221967 12 7 C11.34 6.01 10.68 5.02 10 4 C8.68 4 7.36 4 6 4 Z M24 4 C21.67516215 5.88375675 21.67516215 5.88375675 21.8125 9 C21.79920391 11.92386603 21.79920391 11.92386603 23 14 C26.29075996 13.62095792 26.29075996 13.62095792 29 12 C29.04092937 9.66702567 29.04241723 7.33294775 29 5 C26.60280568 4.32041397 26.60280568 4.32041397 24 4 Z " fill="#1078C4" transform="translate(111,236)"/>
<path d="M0 0 C3.01657791 0.14030595 5.23841273 0.29351465 7.51171875 2.40234375 C8.73256066 3.88904235 9.87246522 5.44134898 11 7 C11 5.02 11 3.04 11 1 C13.3125 0.3125 13.3125 0.3125 16 0 C17.8125 1.4375 17.8125 1.4375 19 3 C18.67 3.33 18.34 3.66 18 4 C17.76472227 6.34987262 17.58613583 8.70556039 17.4375 11.0625 C17.35371094 12.35285156 17.26992188 13.64320313 17.18359375 14.97265625 C17.09271484 16.47119141 17.09271484 16.47119141 17 18 C15.68 18.33 14.36 18.66 13 19 C11.02 16.36 9.04 13.72 7 11 C6.67 12.65 6.34 14.3 6 16 C6.66 16 7.32 16 8 16 C8 16.99 8 17.98 8 19 C5.87562788 19.19448477 3.75046809 19.38038289 1.625 19.5625 C0.44164062 19.66691406 -0.74171875 19.77132812 -1.9609375 19.87890625 C-5 20 -5 20 -7 19 C-7 17.68 -7 16.36 -7 15 C-7.99 14.67 -8.98 14.34 -10 14 C-10 15.65 -10 17.3 -10 19 C-14.75 20.125 -14.75 20.125 -17 19 C-16.26733512 14.91358743 -14.31342025 11.40525846 -12.4375 7.75 C-12.10814453 7.1003125 -11.77878906 6.450625 -11.43945312 5.78125 C-10.62992435 4.18565706 -9.81544958 2.59257517 -9 1 C-8.01 1 -7.02 1 -6 1 C-4.02 5.62 -2.04 10.24 0 15 C0.33 15 0.66 15 1 15 C1 11.7 1 8.4 1 5 C0.34 4.67 -0.32 4.34 -1 4 C-0.67 2.68 -0.34 1.36 0 0 Z " fill="#1C89CC" transform="translate(302,235)"/>
<path d="M0 0 C1.14726563 0.08894531 2.29453125 0.17789062 3.4765625 0.26953125 C5.18972656 0.38361328 5.18972656 0.38361328 6.9375 0.5 C10.25211455 1.10972539 11.76839647 1.68236167 14.1015625 4.08203125 C15.1970028 8.60985117 15.65623472 10.81420904 13.7890625 15.08203125 C13.2321875 15.74203125 12.6753125 16.40203125 12.1015625 17.08203125 C11.4415625 17.08203125 10.7815625 17.08203125 10.1015625 17.08203125 C10.4625 17.69691406 10.8234375 18.31179687 11.1953125 18.9453125 C11.659375 19.75355469 12.1234375 20.56179687 12.6015625 21.39453125 C13.065625 22.19503906 13.5296875 22.99554688 14.0078125 23.8203125 C15.1015625 26.08203125 15.1015625 26.08203125 15.1015625 29.08203125 C12.4765625 29.70703125 12.4765625 29.70703125 9.1015625 29.08203125 C7.23566973 26.62483443 5.82793552 24.09937322 4.3984375 21.3671875 C3.3093044 18.95375526 3.3093044 18.95375526 1.1015625 18.08203125 C1.11316406 18.79230469 1.12476563 19.50257812 1.13671875 20.234375 C1.15025391 21.61302734 1.15025391 21.61302734 1.1640625 23.01953125 C1.17566406 23.93605469 1.18726563 24.85257813 1.19921875 25.796875 C1.1015625 28.08203125 1.1015625 28.08203125 0.1015625 29.08203125 C-1.56460865 29.12266957 -3.23231845 29.12475225 -4.8984375 29.08203125 C-4.9562679 24.62375199 -4.99197605 20.16556845 -5.0234375 15.70703125 C-5.04019531 14.43601562 -5.05695313 13.165 -5.07421875 11.85546875 C-5.08066406 10.64375 -5.08710938 9.43203125 -5.09375 8.18359375 C-5.10946045 6.50257568 -5.10946045 6.50257568 -5.12548828 4.78759766 C-4.79818437 0.88740201 -3.900272 0.11038506 0 0 Z M1.1015625 6.08203125 C1.1015625 8.39203125 1.1015625 10.70203125 1.1015625 13.08203125 C4.5665625 12.58703125 4.5665625 12.58703125 8.1015625 12.08203125 C8.4315625 10.76203125 8.7615625 9.44203125 9.1015625 8.08203125 C5.16201297 6.71623257 5.16201297 6.71623257 1.1015625 6.08203125 Z " fill="#228FD6" transform="translate(515.8984375,13.91796875)"/>
<path d="M0 0 C2.67146608 2.33753282 3.6771812 4.16067111 4.9375 7.4375 C5.02563557 11.05105845 3.96152595 12.99232688 2 16 C-0.88643653 18.41836574 -2.28548369 19.01458197 -6.0625 18.9375 C-9.63807473 17.79635913 -10.97495969 17.19333279 -13 14 C-13.74581066 9.42620198 -13.81349917 5.48552022 -11.5625 1.375 C-7.73004956 -0.68143682 -4.24572001 -0.90533735 0 0 Z M-6 4 C-8.32483785 5.88375675 -8.32483785 5.88375675 -8.1875 9 C-8.20079609 11.92386603 -8.20079609 11.92386603 -7 14 C-3.70924004 13.62095792 -3.70924004 13.62095792 -1 12 C-0.95907063 9.66702567 -0.95758277 7.33294775 -1 5 C-3.39719432 4.32041397 -3.39719432 4.32041397 -6 4 Z " fill="#1081C6" transform="translate(141,236)"/>
<path d="M0 0 C3.625 0.375 3.625 0.375 7 1 C6.83628906 1.55171875 6.67257812 2.1034375 6.50390625 2.671875 C5.94239586 5.26614007 5.90260992 7.59835411 5.9375 10.25 C5.95103516 11.58804688 5.95103516 11.58804688 5.96484375 12.953125 C5.97644531 13.62859375 5.98804688 14.3040625 6 15 C7.65 15 9.3 15 11 15 C10.67 10.38 10.34 5.76 10 1 C14 0 14 0 17 1 C16.77120673 3.42039196 16.51795975 5.83389623 16.25 8.25 C16.1571875 9.27287109 16.1571875 9.27287109 16.0625 10.31640625 C15.67345272 13.65572871 15.16890423 15.77349054 13.14453125 18.48828125 C11 20 11 20 7.4375 19.9375 C3.02143035 18.73311737 3.02143035 18.73311737 1 16 C0.55859375 13.40625 0.55859375 13.40625 0.4375 10.5 C0.26623569 6.63876832 0.20142898 5.30214347 -2 2 C-1.34 1.34 -0.68 0.68 0 0 Z " fill="#208BD0" transform="translate(269,235)"/>
<path d="M0 0 C2.9375 1 2.9375 1 5 2 C4.979375 2.928125 4.95875 3.85625 4.9375 4.8125 C4.84230396 8.02286011 4.84230396 8.02286011 6 11 C3.69 11 1.38 11 -1 11 C-1.33 11.66 -1.66 12.32 -2 13 C-1.625 11.0625 -1.625 11.0625 -1 9 C-0.34 8.67 0.32 8.34 1 8 C0.67 7.34 0.34 6.68 0 6 C-1.66611905 5.957279 -3.33382885 5.95936168 -5 6 C-6.31534788 7.10649557 -6.31534788 7.10649557 -6.3125 9.875 C-6.33639809 13.09664711 -6.33639809 13.09664711 -4 14.875 C-3.34 15.24625 -2.68 15.6175 -2 16 C-2.33 17.32 -2.66 18.64 -3 20 C-9.75 18.375 -9.75 18.375 -12 15 C-12.80893707 9.97607501 -12.77056874 6.16752839 -9.9375 1.875 C-6.26391904 -0.46983891 -4.29167884 -0.53645986 0 0 Z " fill="#1B8BD3" transform="translate(245,235)"/>
<path d="M0 0 C3.155557 4.7333355 3.7182703 9.34362137 3 15 C0.61457557 22.66187955 -3.56973398 29.37081864 -10.8203125 33.25390625 C-15.37241925 34.81206465 -20.22578971 34.84321148 -25 35 C-23.515 34.505 -23.515 34.505 -22 34 C-22 33.34 -22 32.68 -22 32 C-18.04 31.505 -18.04 31.505 -14 31 C-14.33 30.01 -14.66 29.02 -15 28 C-13.9275 27.484375 -12.855 26.96875 -11.75 26.4375 C-7.53003795 24.06644627 -6.06854018 21.30256358 -4 17 C-3.34 17 -2.68 17 -2 17 C-1.93941406 15.94039062 -1.87882813 14.88078125 -1.81640625 13.7890625 C-1.73199873 12.40102779 -1.64735083 11.01300768 -1.5625 9.625 C-1.52318359 8.92632812 -1.48386719 8.22765625 -1.44335938 7.5078125 C-1.11328125 2.2265625 -1.11328125 2.2265625 0 0 Z " fill="#1A8CD0" transform="translate(542,18)"/>
<path d="M0 0 C2.00720923 0.28674418 4.0085944 0.61866701 6 1 C6 4.41775006 5.75017896 7.77881173 5.5 11.1875 C5.4071875 12.45980469 5.314375 13.73210937 5.21875 15.04296875 C5.1465625 16.01878906 5.074375 16.99460938 5 18 C3.68 18.33 2.36 18.66 1 19 C0.40251953 18.15115234 0.40251953 18.15115234 -0.20703125 17.28515625 C-0.73683594 16.55167969 -1.26664062 15.81820312 -1.8125 15.0625 C-2.33457031 14.33160156 -2.85664063 13.60070312 -3.39453125 12.84765625 C-4.95867127 10.73116774 -4.95867127 10.73116774 -8 10 C-8.33 7.03 -8.66 4.06 -9 1 C-4.40962044 2.14759489 -3.66330818 3.29039218 -1 7 C-1.020625 6.030625 -1.04125 5.06125 -1.0625 4.0625 C-1 1 -1 1 0 0 Z " fill="#2992D6" transform="translate(314,235)"/>
<path d="M0 0 C0 0.66 0 1.32 0 2 C0.61875 2.268125 1.2375 2.53625 1.875 2.8125 C4 4 4 4 6 7 C6.13525391 9.0847168 6.13525391 9.0847168 5.9765625 11.44921875 C5.925 12.29677734 5.8734375 13.14433594 5.8203125 14.01757812 C5.75585938 14.89865234 5.69140625 15.77972656 5.625 16.6875 C5.56828125 17.58017578 5.5115625 18.47285156 5.453125 19.39257812 C5.31173702 21.59587413 5.16034022 23.79801539 5 26 C4.34 26.33 3.68 26.66 3 27 C3.05800781 26.23816406 3.11601563 25.47632812 3.17578125 24.69140625 C3.50241857 17.21607794 2.76903652 11.93189748 -2 6 C-4.3726974 3.99135641 -4.3726974 3.99135641 -7 3 C-7.763125 2.62875 -8.52625 2.2575 -9.3125 1.875 C-12.87177158 0.71616739 -16.27652057 0.37865893 -20 0 C-13.92637771 -4.04908153 -6.05956897 -4.03971265 0 0 Z " fill="#2290CF" transform="translate(536,9)"/>
<path d="M0 0 C0.99 0 1.98 0 3 0 C3.07593983 7.4930168 3.12855332 14.98593471 3.16479492 22.47924805 C3.17990005 25.02941598 3.20038533 27.57955786 3.22631836 30.12963867 C3.26262504 33.79091819 3.27970915 37.45185485 3.29296875 41.11328125 C3.30845261 42.2571077 3.32393646 43.40093414 3.33988953 44.579422 C3.34022942 46.17073189 3.34022942 46.17073189 3.34057617 47.79418945 C3.34723801 48.72906693 3.35389984 49.6639444 3.36076355 50.62715149 C2.93081191 53.45507054 2.2752363 54.31762344 0 56 C-2.6875 56.6875 -2.6875 56.6875 -5 57 C-4.34 56.01 -3.68 55.02 -3 54 C-2.34 54 -1.68 54 -1 54 C-0.09713249 50.91398919 0.1216323 48.16638994 0.11352539 44.95605469 C0.11344986 43.95531921 0.11337433 42.95458374 0.11329651 41.92352295 C0.10813522 40.85047913 0.10297394 39.7774353 0.09765625 38.671875 C0.0962413 37.56773254 0.09482635 36.46359009 0.09336853 35.32598877 C0.08777258 31.80063158 0.07522079 28.27533798 0.0625 24.75 C0.05748448 22.35937592 0.05292166 19.96875084 0.04882812 17.578125 C0.03780447 11.71872832 0.02107033 5.8593687 0 0 Z " fill="#288FD6" transform="translate(72,15)"/>
<path d="M0 0 C2.60538222 0.94083247 4.66833595 1.70387138 6.75 3.5625 C11.61962998 6.67365249 18.38801218 6.14389712 24 6 C24 6.66 24 7.32 24 8 C21.36 8.33 18.72 8.66 16 9 C16 9.66 16 10.32 16 11 C9.98668603 11.53690303 6.72875836 10.75322252 1.6640625 7.484375 C-0.20251731 5.81935076 -1.03216551 4.28760879 -2 2 C-1.34 1.34 -0.68 0.68 0 0 Z " fill="#298FD4" transform="translate(504,41)"/>
<path d="M0 0 C2.5 1.9375 2.5 1.9375 5 5 C5.24699035 7.31659914 5.12307025 9.46654278 4.96875 11.7890625 C5.01371812 14.97055679 6.57278634 17.21044603 8 20 C7.1875 22.375 7.1875 22.375 6 24 C5.01 24 4.02 24 3 24 C0.25768476 18.75383171 -1.14301393 14.90856778 -1.125 9 C-1.12757813 8.154375 -1.13015625 7.30875 -1.1328125 6.4375 C-1.00833711 4.15301056 -0.63877457 2.19008426 0 0 Z " fill="#2384CB" transform="translate(497,19)"/>
<path d="M0 0 C0.66 0.99 1.32 1.98 2 3 C1.34 3.66 0.68 4.32 0 5 C-0.99 5 -1.98 5 -3 5 C-3 6.65 -3 8.3 -3 10 C-6.96701283 10.87274282 -9.42670983 11.19470232 -13.3125 9.875 C-16.30769804 7.78532695 -17.06117241 6.47366207 -18 3 C-15.625 3.3125 -15.625 3.3125 -13 4 C-12.01 5.485 -12.01 5.485 -11 7 C-10.67 6.67 -10.34 6.34 -10 6 C-8.33382885 5.95936168 -6.66611905 5.957279 -5 6 C-5 5.34 -5 4.68 -5 4 C-5.66 4 -6.32 4 -7 4 C-7 3.01 -7 2.02 -7 1 C-4.46578263 -0.26710868 -2.80561762 -0.28056176 0 0 Z " fill="#1587D1" transform="translate(180,244)"/>
<path d="M0 0 C-10.37429582 4.73430167 -28.08543482 7.82585706 -38.85546875 3.98046875 C-39.56316406 3.65691406 -40.27085937 3.33335937 -41 3 C-41 2.34 -41 1.68 -41 1 C-39.51113281 1.14308594 -39.51113281 1.14308594 -37.9921875 1.2890625 C-28.66884359 2.08602822 -20.25602733 1.65832256 -11 0 C-3.49371069 -1.16457023 -3.49371069 -1.16457023 0 0 Z " fill="#2D98D6" transform="translate(296,178)"/>
<path d="M0 0 C1.32 0 2.64 0 4 0 C4.6708712 1.6232687 5.33657029 3.24867578 6 4.875 C6.556875 6.23238281 6.556875 6.23238281 7.125 7.6171875 C8 10 8 10 8 12 C5.23735711 12.59732819 2.83967231 13 0 13 C0 12.34 0 11.68 0 11 C-0.99 11 -1.98 11 -3 11 C-2.44894091 7.0507432 -1.61064629 3.65079826 0 0 Z " fill="#1A82CA" transform="translate(205,236)"/>
<path d="M0 0 C0.99 0 1.98 0 3 0 C3.33 3.3 3.66 6.6 4 10 C4.66 10 5.32 10 6 10 C6 11.98 6 13.96 6 16 C6.66 16 7.32 16 8 16 C8 16.99 8 17.98 8 19 C4.37 19.33 0.74 19.66 -3 20 C-2.67 18.35 -2.34 16.7 -2 15 C-1.01 15 -0.02 15 1 15 C1 11.7 1 8.4 1 5 C0.34 4.67 -0.32 4.34 -1 4 C-0.67 2.68 -0.34 1.36 0 0 Z " fill="#248AC8" transform="translate(302,235)"/>
<path d="M0 0 C-0.66 5.61 -1.32 11.22 -2 17 C-3.32 17 -4.64 17 -6 17 C-6.33 15.35 -6.66 13.7 -7 12 C-6.34 12 -5.68 12 -5 12 C-5.144375 11.38511719 -5.28875 10.77023438 -5.4375 10.13671875 C-5.623125 9.32847656 -5.80875 8.52023438 -6 7.6875 C-6.185625 6.88699219 -6.37125 6.08648437 -6.5625 5.26171875 C-7 3 -7 3 -7 0 C-5 -1 -5 -1 0 0 Z " fill="#0B83CB" transform="translate(163,236)"/>
<path d="M0 0 C2.00720923 0.28674418 4.0085944 0.61866701 6 1 C5.77120673 3.42039196 5.51795975 5.83389623 5.25 8.25 C5.188125 8.93191406 5.12625 9.61382812 5.0625 10.31640625 C4.65576686 13.80753235 4.20114451 15.75953401 1.921875 18.484375 C0.97054688 19.23460937 0.97054688 19.23460937 0 20 C-1.24674334 16.25976998 -1.14552755 12.7683914 -1.125 8.875 C-1.12886719 8.13378906 -1.13273437 7.39257812 -1.13671875 6.62890625 C-1.1266598 1.1266598 -1.1266598 1.1266598 0 0 Z " fill="#2479B2" transform="translate(280,235)"/>
<path d="M0 0 C10.68430493 -0.76681614 10.68430493 -0.76681614 13.91015625 1.11328125 C15.25 2.5 15.25 2.5 17 5 C16.67 5.66 16.34 6.32 16 7 C15.67 6.01 15.34 5.02 15 4 C13.68 4.99 12.36 5.98 11 7 C10.67 6.34 10.34 5.68 10 5 C7.97536745 4.34786708 7.97536745 4.34786708 6 4 C6 5.98 6 7.96 6 10 C5.01 9.67 4.02 9.34 3 9 C3 6.69 3 4.38 3 2 C2.01 2.33 1.02 2.66 0 3 C0 2.01 0 1.02 0 0 Z " fill="#0370C7" transform="translate(111,236)"/>
<path d="M0 0 C0.99 0.33 1.98 0.66 3 1 C0.05694628 5.23799736 -3.10615797 8.27377706 -8 10 C-11.99622779 10.6001844 -15.96307991 10.86742463 -20 11 C-19.01 10.67 -18.02 10.34 -17 10 C-17 9.34 -17 8.68 -17 8 C-14.36 7.67 -11.72 7.34 -9 7 C-9.33 6.01 -9.66 5.02 -10 4 C-8.02 3.01 -6.04 2.02 -4 1 C-4 1.66 -4 2.32 -4 3 C-3.401875 2.484375 -2.80375 1.96875 -2.1875 1.4375 C-1.465625 0.963125 -0.74375 0.48875 0 0 Z " fill="#0C7BCF" transform="translate(537,42)"/>
<path d="M0 0 C7.875 0.875 7.875 0.875 9 2 C9 4 9 6 9 8 C9.33 8.99 9.66 9.98 10 11 C7.69 11 5.38 11 3 11 C2.67 11.66 2.34 12.32 2 13 C2.375 11.0625 2.375 11.0625 3 9 C3.66 8.67 4.32 8.34 5 8 C4.67 7.34 4.34 6.68 4 6 C1.97536745 5.34786708 1.97536745 5.34786708 0 5 C0 3.35 0 1.7 0 0 Z " fill="#0D89D1" transform="translate(241,235)"/>
<path d="M0 0 C0.66 0 1.32 0 2 0 C2.185625 1.7015625 2.185625 1.7015625 2.375 3.4375 C2.684375 5.2009375 2.684375 5.2009375 3 7 C3.66 7.33 4.32 7.66 5 8 C5 9.32 5 10.64 5 12 C6.98 11.34 8.96 10.68 11 10 C10.34 11.65 9.68 13.3 9 15 C6.03 15 3.06 15 0 15 C0 10.05 0 5.1 0 0 Z " fill="#2994D7" transform="translate(112,238)"/>
<path d="M0 0 C3.40233948 -0.47632753 5.92502569 -0.74790766 8.8359375 1.27734375 C11.2602712 3.78704131 12.91286713 5.6815421 13.1484375 9.24609375 C12.875 11.4375 12.875 11.4375 12 15 C9.73981162 12.35012397 7.97625265 9.95155541 6.4375 6.8125 C5.1645271 3.75692522 5.1645271 3.75692522 2 2 C1.67 2.66 1.34 3.32 1 4 C0.67 2.68 0.34 1.36 0 0 Z " fill="#1590D3" transform="translate(214,236)"/>
<path d="M0 0 C3.79303725 1.00193437 6.71536341 1.81024227 10 4 C10.2487793 5.97119141 10.2487793 5.97119141 10.07421875 8.3515625 C9.99204102 9.62773437 9.99204102 9.62773437 9.90820312 10.9296875 C9.83537109 11.81914062 9.76253906 12.70859375 9.6875 13.625 C9.62626953 14.5221875 9.56503906 15.419375 9.50195312 16.34375 C9.34843467 18.56386306 9.18056839 20.78194979 9 23 C8.34 23.33 7.68 23.66 7 24 C7.05800781 23.23816406 7.11601563 22.47632812 7.17578125 21.69140625 C7.51163611 14.00512795 6.40528391 9.28754158 2 3 C1.34 2.01 0.68 1.02 0 0 Z " fill="#2297D6" transform="translate(532,12)"/>
<path d="M0 0 C0.7528125 -0.01417969 1.505625 -0.02835937 2.28125 -0.04296875 C4.74864173 0.21332722 6.36356256 0.95904847 8.5 2.1875 C6.59576534 4.09173466 3.21526887 3.6134749 0.62890625 3.80859375 C-1.70927403 4.01526636 -1.70927403 4.01526636 -3.5 6.1875 C-5.48821313 6.58514263 -7.48944339 6.92525349 -9.5 7.1875 C-9.17 5.2075 -8.84 3.2275 -8.5 1.1875 C-5.61288129 0.36729582 -2.99986689 0.02568379 0 0 Z " fill="#0879CF" transform="translate(520.5,3.8125)"/>
<path d="M0 0 C0.33 0.66 0.66 1.32 1 2 C1.66 2 2.32 2 3 2 C2.979375 3.2375 2.95875 4.475 2.9375 5.75 C2.93233319 8.6640825 3.06984442 11.20953327 4 14 C3.01 13.34 2.02 12.68 1 12 C1 11.34 1 10.68 1 10 C-0.65 9.67 -2.3 9.34 -4 9 C-3.67 6.36 -3.34 3.72 -3 1 C-2.01 0.67 -1.02 0.34 0 0 Z " fill="#228BD0" transform="translate(166,238)"/>
<path d="M0 0 C0.99 0 1.98 0 3 0 C2.67 16.17 2.34 32.34 2 49 C1.67 49 1.34 49 1 49 C0.67 32.83 0.34 16.66 0 0 Z " fill="#329EDC" transform="translate(72,15)"/>
<path d="M0 0 C2.5625 2.0625 2.5625 2.0625 5 5 C4.8125 8.8125 4.8125 8.8125 4 12 C2.35 12.66 0.7 13.32 -1 14 C-1.027193 12.41676312 -1.04648306 10.83338938 -1.0625 9.25 C-1.07410156 8.36828125 -1.08570313 7.4865625 -1.09765625 6.578125 C-1.00826198 4.2181162 -0.66912821 2.25501476 0 0 Z " fill="#0877C7" transform="translate(497,19)"/>
<path d="M0 0 C0.66 0 1.32 0 2 0 C3.20272819 2.40545638 3.10071472 3.94996953 3.0625 6.625 C3.05347656 7.44226563 3.04445312 8.25953125 3.03515625 9.1015625 C3.02355469 9.72804687 3.01195312 10.35453125 3 11 C-0.875 10.125 -0.875 10.125 -2 9 C-2.26293056 4.96839809 -2.29404844 3.44107266 0 0 Z " fill="#2A93D2" transform="translate(228,243)"/>
<path d="M0 0 C1.32 0 2.64 0 4 0 C4.84098656 4.01804691 5.05404945 7.01803543 4 11 C2.68 10.67 1.36 10.34 0 10 C-1.125 3.375 -1.125 3.375 0 0 Z " fill="#2D93D6" transform="translate(205,236)"/>
<path d="M0 0 C-0.26696092 3.91542687 -0.49494281 5.53379336 -3.4375 8.25 C-4.283125 8.8275 -5.12875 9.405 -6 10 C-6.66 10.66 -7.32 11.32 -8 12 C-8.94467607 9.44937462 -9.02758299 8.11309027 -8.375 5.4375 C-6.4968464 2.10804588 -3.94563331 0 0 0 Z " fill="#0D8BD1" transform="translate(512,6)"/>
<path d="M0 0 C0.66 0 1.32 0 2 0 C4.49584488 7.63434903 4.49584488 7.63434903 3 11 C2.34 11.66 1.68 12.32 1 13 C-1 11 -1 11 -1.23046875 8.65234375 C-1.21628906 7.75644531 -1.20210938 6.86054688 -1.1875 5.9375 C-1.18105469 5.03902344 -1.17460938 4.14054688 -1.16796875 3.21484375 C-1 1 -1 1 0 0 Z " fill="#43A8DE" transform="translate(129,239)"/>
<path d="M0 0 C1 1 1 1 1.0625 4.5625 C1.041875 5.696875 1.02125 6.83125 1 8 C-1 8 -1 8 -2.4375 6.625 C-2.953125 6.08875 -3.46875 5.5525 -4 5 C-4.99 4.34 -5.98 3.68 -7 3 C-7 2.01 -7 1.02 -7 0 C-4.31633121 -1.3418344 -2.84719317 -0.73004953 0 0 Z " fill="#2B96D5" transform="translate(151,236)"/>
<path d="M0 0 C10.15317287 0.35010941 10.15317287 0.35010941 13.6875 3.0625 C14.120625 3.701875 14.55375 4.34125 15 5 C13.35 5.33 11.7 5.66 10 6 C10 5.01 10 4.02 10 3 C9.67 3.33 9.34 3.66 9 4 C7.33382885 4.04063832 5.66611905 4.042721 4 4 C3.67 4.99 3.34 5.98 3 7 C2 6 2 6 1.9375 3.4375 C1.958125 2.633125 1.97875 1.82875 2 1 C1.34 0.67 0.68 0.34 0 0 Z " fill="#1A87D1" transform="translate(515,14)"/>
<path d="M0 0 C2.29013653 3.4352048 2.17842973 4.985331 2 9 C4.97 9.495 4.97 9.495 8 10 C8.33 10.99 8.66 11.98 9 13 C7.375 13.8125 7.375 13.8125 5 14 C-0.66666667 10 -0.66666667 10 -2 6 C-1.0625 2.8125 -1.0625 2.8125 0 0 Z " fill="#1D8AD2" transform="translate(253,242)"/>
<path d="M0 0 C0.66 0 1.32 0 2 0 C4.21538462 6.27692308 4.21538462 6.27692308 3.125 9.9375 C2.568125 10.9584375 2.568125 10.9584375 2 12 C0.68 11.67 -0.64 11.34 -2 11 C-2.19622241 6.78121808 -1.80230168 3.82989106 0 0 Z " fill="#2199D7" transform="translate(297,243)"/>
<path d="M0 0 C1.32 0.33 2.64 0.66 4 1 C4 4.96 4 8.92 4 13 C5.65 12.67 7.3 12.34 9 12 C9 12.99 9 13.98 9 15 C6.69 15 4.38 15 2 15 C2 11.04 2 7.08 2 3 C1.34 3 0.68 3 0 3 C0 2.01 0 1.02 0 0 Z " fill="#349CDC" transform="translate(513,14)"/>
<path d="M0 0 C1.21816406 0.03480469 1.21816406 0.03480469 2.4609375 0.0703125 C3.68683594 0.09738281 3.68683594 0.09738281 4.9375 0.125 C5.87722656 0.15980469 5.87722656 0.15980469 6.8359375 0.1953125 C6.8359375 0.8553125 6.8359375 1.5153125 6.8359375 2.1953125 C5.93875 2.6284375 5.93875 2.6284375 5.0234375 3.0703125 C1.3118029 4.97915315 -0.51513442 6.39009386 -2.1640625 10.1953125 C-2.55329168 8.90786214 -2.92504286 7.61511653 -3.2890625 6.3203125 C-3.60230469 5.24136719 -3.60230469 5.24136719 -3.921875 4.140625 C-4.00179687 3.49867188 -4.08171875 2.85671875 -4.1640625 2.1953125 C-2.1640625 0.1953125 -2.1640625 0.1953125 0 0 Z " fill="#0A73C6" transform="translate(134.1640625,235.8046875)"/>
<path d="M0 0 C0.66 0 1.32 0 2 0 C1.55397709 6.69034366 -1.07345542 12.02812122 -4 18 C-4.33 18 -4.66 18 -5 18 C-5.28773432 13.20922365 -4.44169975 9.99382444 -2.5 5.625 C-2.0359375 4.56539063 -1.571875 3.50578125 -1.09375 2.4140625 C-0.55234375 1.21910156 -0.55234375 1.21910156 0 0 Z " fill="#2A96D5" transform="translate(443,110)"/>
<path d="M0 0 C0.33 0 0.66 0 1 0 C1 8.25 1 16.5 1 25 C0.67 24.01 0.34 23.02 0 22 C-0.66 22 -1.32 22 -2 22 C-2 19.03 -2 16.06 -2 13 C-1.34 13 -0.68 13 0 13 C0 8.71 0 4.42 0 0 Z " fill="#278BD1" transform="translate(89,39)"/>
<path d="M0 0 C0.66 0 1.32 0 2 0 C2.19406478 1.64507218 2.38007935 3.29109594 2.5625 4.9375 C2.66691406 5.85402344 2.77132812 6.77054688 2.87890625 7.71484375 C2.91886719 8.46894531 2.95882812 9.22304687 3 10 C2 11 2 11 -0.50390625 11.09765625 C-2.01791016 11.08025391 -2.01791016 11.08025391 -3.5625 11.0625 C-4.57441406 11.05347656 -5.58632812 11.04445312 -6.62890625 11.03515625 C-7.41136719 11.02355469 -8.19382813 11.01195312 -9 11 C-8.67 10.34 -8.34 9.68 -8 9 C-5.67843403 8.59270772 -3.3431213 8.25561323 -1 8 C-0.67 5.36 -0.34 2.72 0 0 Z " fill="#11669E" transform="translate(219,244)"/>
<path d="M0 0 C0 5.61 0 11.22 0 17 C-3 14 -3 14 -3.2578125 11.87890625 C-3.21398437 11.11449219 -3.17015625 10.35007813 -3.125 9.5625 C-2.96779457 6.46555311 -3.11675372 3.98265475 -4 1 C-2 0 -2 0 0 0 Z " fill="#33A1D5" transform="translate(186,235)"/>
<path d="M0 0 C2.97 0.495 2.97 0.495 6 1 C5.34 5.62 4.68 10.24 4 15 C3.67 15 3.34 15 3 15 C2.67 12.03 2.34 9.06 2 6 C1.01 5.67 0.02 5.34 -1 5 C-0.67 3.35 -0.34 1.7 0 0 Z " fill="#2D9BD9" transform="translate(280,235)"/>
<path d="M0 0 C-2.42108679 5.20935262 -5.66780543 9.83390272 -10.875 12.4375 C-11.926875 12.7159375 -11.926875 12.7159375 -13 13 C-11.46781315 9.36938333 -9.2816856 7.0136227 -6.5 4.25 C-5.7059375 3.45078125 -4.911875 2.6515625 -4.09375 1.828125 C-2 0 -2 0 0 0 Z " fill="#1D8AD9" transform="translate(265,152)"/>
<path d="M0 0 C0.66 0 1.32 0 2 0 C3.38226016 2.76452033 3.09525387 5.0461363 3.0625 8.125 C3.05347656 9.22070312 3.04445313 10.31640625 3.03515625 11.4453125 C3.02355469 12.28835937 3.01195312 13.13140625 3 14 C2.01 14 1.02 14 0 14 C0 9.38 0 4.76 0 0 Z " fill="#067FC9" transform="translate(405,223)"/>
<path d="M0 0 C1.32 0 2.64 0 4 0 C4 0.66 4 1.32 4 2 C5.216875 2.103125 6.43375 2.20625 7.6875 2.3125 C11.40147573 2.77427318 13.99626385 3.65333113 17 6 C17 6.66 17 7.32 17 8 C5.95520443 4.92230005 5.95520443 4.92230005 1 2 C0.67 1.34 0.34 0.68 0 0 Z " fill="#2597D6" transform="translate(104,206)"/>
<path d="M0 0 C4 4.625 4 4.625 4 8 C2.02 8 0.04 8 -2 8 C-2.66 6.68 -3.32 5.36 -4 4 C-3.34 4 -2.68 4 -2 4 C-2.33 3.01 -2.66 2.02 -3 1 C-2.01 0.67 -1.02 0.34 0 0 Z " fill="#1C8ECD" transform="translate(527,35)"/>
<path d="M0 0 C0.33 0.66 0.66 1.32 1 2 C4.465 1.505 4.465 1.505 8 1 C7.67 1.99 7.34 2.98 7 4 C6.34 4 5.68 4 5 4 C5 4.99 5 5.98 5 7 C2.03 6.505 2.03 6.505 -1 6 C-1.33 4.35 -1.66 2.7 -2 1 C-1.34 0.67 -0.68 0.34 0 0 Z " fill="#187CD3" transform="translate(133,248)"/>
<path d="M0 0 C0.763125 0.20625 1.52625 0.4125 2.3125 0.625 C1.9825 2.935 1.6525 5.245 1.3125 7.625 C-1.0625 7.4375 -1.0625 7.4375 -3.6875 6.625 C-5 4.0625 -5 4.0625 -5.6875 1.625 C-2.6875 -0.375 -2.6875 -0.375 0 0 Z " fill="#0B71B3" transform="translate(160.6875,235.375)"/>
<path d="M0 0 C0.33 0.66 0.66 1.32 1 2 C1.99 1.67 2.98 1.34 4 1 C4.33 2.98 4.66 4.96 5 7 C0.25 8.125 0.25 8.125 -2 7 C-1.42415568 4.61435923 -0.77772405 2.33317216 0 0 Z " fill="#2581D0" transform="translate(147,247)"/>
<path d="M0 0 C2.31 0.33 4.62 0.66 7 1 C6.8125 2.875 6.8125 2.875 6 5 C3.4375 6.25 3.4375 6.25 1 7 C0 6 0 6 -0.0625 2.9375 C-0.041875 1.968125 -0.02125 0.99875 0 0 Z " fill="#198DD0" transform="translate(192,235)"/>
<path d="M0 0 C1.58294782 -0.05437607 3.16644256 -0.09296271 4.75 -0.125 C5.63171875 -0.14820312 6.5134375 -0.17140625 7.421875 -0.1953125 C10.1135858 0.00860498 11.69904974 0.63448279 14 2 C13 3 13 3 10.05859375 3.09765625 C8.26615234 3.08025391 8.26615234 3.08025391 6.4375 3.0625 C4.64119141 3.04896484 4.64119141 3.04896484 2.80859375 3.03515625 C1.88175781 3.02355469 0.95492188 3.01195313 0 3 C0 2.01 0 1.02 0 0 Z " fill="#399CD6" transform="translate(350,75)"/>
<path d="M0 0 C4 2 4 2 5.25 4.625 C5.4975 5.40875 5.745 6.1925 6 7 C5.01 6.67 4.02 6.34 3 6 C3 8.31 3 10.62 3 13 C2.34 13 1.68 13 1 13 C0.67 8.71 0.34 4.42 0 0 Z " fill="#3E9FD9" transform="translate(216,238)"/>
<path d="M0 0 C1.65 0 3.3 0 5 0 C5.33 3.3 5.66 6.6 6 10 C4.68 9.67 3.36 9.34 2 9 C1.67 7.68 1.34 6.36 1 5 C0.67 5 0.34 5 0 5 C0 3.35 0 1.7 0 0 Z " fill="#0C82D0" transform="translate(192,241)"/>
<path d="M0 0 C0 0.99 0 1.98 0 3 C-2 4.6875 -2 4.6875 -4 6 C-4.33 5.01 -4.66 4.02 -5 3 C-3.35 2.01 -1.7 1.02 0 0 Z M-4 7 C-3.67 7.66 -3.34 8.32 -3 9 C-8.94 9.495 -8.94 9.495 -15 10 C-14.01 9.67 -13.02 9.34 -12 9 C-12 8.34 -12 7.68 -12 7 C-8.71303767 6.20046862 -7.28976808 5.90341064 -4 7 Z " fill="#0B74B5" transform="translate(532,43)"/>
<path d="M0 0 C0.99 0.33 1.98 0.66 3 1 C3.33 2.65 3.66 4.3 4 6 C3.01 6.495 3.01 6.495 2 7 C2 7.66 2 8.32 2 9 C1.01 9 0.02 9 -1 9 C-1.33 7.02 -1.66 5.04 -2 3 C-1.34 3 -0.68 3 0 3 C0 2.01 0 1.02 0 0 Z " fill="#3498D9" transform="translate(523,30)"/>
<path d="M0 0 C2.61881031 3.92821547 2.28987737 7.43443139 2 12 C1.34 12.99 0.68 13.98 0 15 C-1 14 -1 14 -1.1328125 11.34765625 C-1.13023437 10.26355469 -1.12765625 9.17945313 -1.125 8.0625 C-1.12757813 6.98097656 -1.13015625 5.89945313 -1.1328125 4.78515625 C-1 2 -1 2 0 0 Z " fill="#0473BF" transform="translate(543,21)"/>
<path d="M0 0 C0.66 1.32 1.32 2.64 2 4 C4.03317007 5.73425773 4.03317007 5.73425773 6 7 C5.67 8.32 5.34 9.64 5 11 C2.69 10.34 0.38 9.68 -2 9 C-1.34 6.03 -0.68 3.06 0 0 Z " fill="#187CC2" transform="translate(237,244)"/>
<path d="M0 0 C1.32 0 2.64 0 4 0 C4 0.66 4 1.32 4 2 C5.98 1.67 7.96 1.34 10 1 C10 1.99 10 2.98 10 4 C6.37 4.33 2.74 4.66 -1 5 C-0.67 3.35 -0.34 1.7 0 0 Z " fill="#1B75C1" transform="translate(300,250)"/>
<path d="M0 0 C0.33 0 0.66 0 1 0 C1.33 3.63 1.66 7.26 2 11 C3.65 11 5.3 11 7 11 C6.67 12.65 6.34 14.3 6 16 C5.01 16 4.02 16 3 16 C3 14.68 3 13.36 3 12 C2.01 12 1.02 12 0 12 C0 8.04 0 4.08 0 0 Z " fill="#35A5DA" transform="translate(273,239)"/>
<path d="M0 0 C2.9719385 1.12451727 5.33440687 2.22293791 8 4 C8 4.99 8 5.98 8 7 C7.0925 6.690625 6.185 6.38125 5.25 6.0625 C2.83436662 5.2727737 0.47219715 4.57050703 -2 4 C-1.34 2.68 -0.68 1.36 0 0 Z " fill="#3097DA" transform="translate(504,41)"/>
<path d="M0 0 C2.64 0.33 5.28 0.66 8 1 C8 1.66 8 2.32 8 3 C7.34 3 6.68 3 6 3 C6 4.98 6 6.96 6 9 C5.01 8.67 4.02 8.34 3 8 C3 5.69 3 3.38 3 1 C2.01 1.33 1.02 1.66 0 2 C0 1.34 0 0.68 0 0 Z " fill="#0D83CD" transform="translate(111,237)"/>
<path d="M0 0 C0 0.66 0 1.32 0 2 C-4.62 2 -9.24 2 -14 2 C-14 1.34 -14 0.68 -14 0 C-9.35601989 -1.54799337 -4.67482292 -1.49594333 0 0 Z " fill="#2992DB" transform="translate(198,83)"/>
<path d="M0 0 C0.8353125 0.433125 0.8353125 0.433125 1.6875 0.875 C4.08494645 2.0413253 6.51596939 3.0339881 9 4 C8.01 4.495 8.01 4.495 7 5 C6.67 5.66 6.34 6.32 6 7 C3.36 5.35 0.72 3.7 -2 2 C-1.34 1.34 -0.68 0.68 0 0 Z " fill="#1A91D0" transform="translate(506,45)"/>
<path d="M0 0 C2.76223278 2.76223278 2.57856291 5.20706617 3 9 C2.34 9 1.68 9 1 9 C0.67 8.01 0.34 7.02 0 6 C-1.65 5.67 -3.3 5.34 -5 5 C-5 4.01 -5 3.02 -5 2 C-3.35 2 -1.7 2 0 2 C0 1.34 0 0.68 0 0 Z " fill="#3599D4" transform="translate(524,16)"/>
<path d="M0 0 C0.66 0 1.32 0 2 0 C0.60846256 4.42761914 -1.52071486 6.9556255 -5 10 C-5.66 10 -6.32 10 -7 10 C-5.32598022 6.04322598 -2.86850715 3.15535787 0 0 Z " fill="#319CD5" transform="translate(372,233)"/>
<path d="M0 0 C0.99 0 1.98 0 3 0 C3.2500201 3.00024116 3.28636724 4.55743244 1.625 7.125 C1.08875 7.74375 0.5525 8.3625 0 9 C-0.66 9.99 -1.32 10.98 -2 12 C-2.21278058 7.53160785 -1.59138085 4.17737474 0 0 Z " fill="#2C99D6" transform="translate(238,235)"/>
<path d="M0 0 C0.99 0 1.98 0 3 0 C3 0.66 3 1.32 3 2 C3.66 2 4.32 2 5 2 C5.33 1.34 5.66 0.68 6 0 C5.67 1.65 5.34 3.3 5 5 C2.03 4.505 2.03 4.505 -1 4 C-0.67 2.68 -0.34 1.36 0 0 Z " fill="#1773BF" transform="translate(286,250)"/>
<path d="M0 0 C0.99 0.33 1.98 0.66 3 1 C3 2.98 3 4.96 3 7 C1.824375 7.4640625 1.824375 7.4640625 0.625 7.9375 C-1.92330128 8.92875038 -1.92330128 8.92875038 -4 10 C-2.97435379 7.94870759 -1.94812883 5.90202112 -0.875 3.875 C0.14096182 2.04279198 0.14096182 2.04279198 0 0 Z " fill="#2185CB" transform="translate(217,151)"/>
<path d="M0 0 C1.98 0 3.96 0 6 0 C6 0.66 6 1.32 6 2 C5.01 2 4.02 2 3 2 C0.78831775 4.94236782 0.78831775 4.94236782 -1 8 C-1.66 7.67 -2.32 7.34 -3 7 C-2.01 4.69 -1.02 2.38 0 0 Z " fill="#3298DC" transform="translate(397,27)"/>
<path d="M0 0 C5.75 2.625 5.75 2.625 8 6 C7.67 6.99 7.34 7.98 7 9 C6.6596875 8.0409375 6.6596875 8.0409375 6.3125 7.0625 C5.14749104 4.72806339 5.14749104 4.72806339 2.375 4.25 C1.59125 4.1675 0.8075 4.085 0 4 C0 2.68 0 1.36 0 0 Z " fill="#1A91D4" transform="translate(162,243)"/>
<path d="M0 0 C2.97 0.495 2.97 0.495 6 1 C5.67 2.32 5.34 3.64 5 5 C3.35 5 1.7 5 0 5 C0 3.35 0 1.7 0 0 Z " fill="#197DCF" transform="translate(241,235)"/>
<path d="M0 0 C1.32 0.33 2.64 0.66 4 1 C4.1875 3.875 4.1875 3.875 4 7 C3.01 7.66 2.02 8.32 1 9 C0.08941469 5.92677456 -0.08886184 3.19902639 0 0 Z " fill="#106DB3" transform="translate(201,246)"/>
<path d="M0 0 C1 2 1 2 0.44140625 4.1640625 C0.15136719 4.97617188 -0.13867188 5.78828125 -0.4375 6.625 C-0.72496094 7.44226563 -1.01242188 8.25953125 -1.30859375 9.1015625 C-1.53675781 9.72804687 -1.76492187 10.35453125 -2 11 C-2.99 11 -3.98 11 -5 11 C-5 10.34 -5 9.68 -5 9 C-4.34 9 -3.68 9 -3 9 C-2.87625 7.88625 -2.7525 6.7725 -2.625 5.625 C-2 2 -2 2 0 0 Z " fill="#3DA0DA" transform="translate(254,237)"/>
<path d="M0 0 C2.97 0.495 2.97 0.495 6 1 C5.67 2.32 5.34 3.64 5 5 C3.68 4.67 2.36 4.34 1 4 C0.67 4.66 0.34 5.32 0 6 C0 4.02 0 2.04 0 0 Z " fill="#1879CB" transform="translate(186,235)"/>
<path d="M0 0 C-1.26239712 0.86658615 -2.53527501 1.71792059 -3.8125 2.5625 C-4.87404297 3.27599609 -4.87404297 3.27599609 -5.95703125 4.00390625 C-8 5 -8 5 -11 4 C-9.73760288 3.13341385 -8.46472499 2.28207941 -7.1875 1.4375 C-6.47980469 0.96183594 -5.77210938 0.48617187 -5.04296875 -0.00390625 C-3 -1 -3 -1 0 0 Z " fill="#2D94D7" transform="translate(456,159)"/>
<path d="M0 0 C0.79921875 0.00902344 1.5984375 0.01804687 2.421875 0.02734375 C3.02515625 0.03894531 3.6284375 0.05054687 4.25 0.0625 C1.28821227 1.73360042 -1.12071192 2.38932752 -4.5 2.6875 C-5.29921875 2.76226562 -6.0984375 2.83703125 -6.921875 2.9140625 C-7.52515625 2.96304688 -8.1284375 3.01203125 -8.75 3.0625 C-8.75 2.4025 -8.75 1.7425 -8.75 1.0625 C-5.75519083 0.1901588 -3.11424089 -0.04579766 0 0 Z " fill="#2A97D6" transform="translate(103.75,88.9375)"/>
<path d="M0 0 C0.66 0 1.32 0 2 0 C2 3.63 2 7.26 2 11 C1.01 10.67 0.02 10.34 -1 10 C-1 8.68 -1 7.36 -1 6 C-0.34 6 0.32 6 1 6 C0.67 4.02 0.34 2.04 0 0 Z " fill="#1F91D8" transform="translate(157,242)"/>
<path d="M0 0 C0.66 0.99 1.32 1.98 2 3 C-2.455 3.495 -2.455 3.495 -7 4 C-7 3.01 -7 2.02 -7 1 C-4.46578263 -0.26710868 -2.80561762 -0.28056176 0 0 Z " fill="#0653C8" transform="translate(180,244)"/>
<path d="M0 0 C2 1.8125 2 1.8125 4 4 C4 4.99 4 5.98 4 7 C3.34 7 2.68 7 2 7 C1.67 7.66 1.34 8.32 1 9 C-0.61949011 6.42786866 -1.04408751 5.32330841 -0.625 2.25 C-0.41875 1.5075 -0.2125 0.765 0 0 Z " fill="#047DC7" transform="translate(154,241)"/>
<path d="M0 0 C2.31 0 4.62 0 7 0 C7.66 1.32 8.32 2.64 9 4 C8.34 4 7.68 4 7 4 C7 3.34 7 2.68 7 2 C6.01 2.33 5.02 2.66 4 3 C3.34 2.67 2.68 2.34 2 2 C1.67 2.66 1.34 3.32 1 4 C0.67 2.68 0.34 1.36 0 0 Z " fill="#1178BF" transform="translate(214,236)"/>
<path d="M0 0 C0 1.65 0 3.3 0 5 C-0.99 5.495 -0.99 5.495 -2 6 C-4.625 5.0625 -4.625 5.0625 -7 4 C-3.17391304 0 -3.17391304 0 0 0 Z " fill="#148BC7" transform="translate(171,235)"/>
<path d="M0 0 C1.65 0 3.3 0 5 0 C4.67 1.65 4.34 3.3 4 5 C2.02 5 0.04 5 -2 5 C-2 4.01 -2 3.02 -2 2 C-1.34 2 -0.68 2 0 2 C0 1.34 0 0.68 0 0 Z " fill="#2184CB" transform="translate(524,24)"/>
<path d="M0 0 C0.66 0 1.32 0 2 0 C1.43454163 3.95820859 0.19097652 6.6659053 -2 10 C-3.39195915 5.82412255 -1.82323219 3.86525224 0 0 Z " fill="#2F99DA" transform="translate(459,73)"/>
<path d="M0 0 C6.4 -0.49230769 6.4 -0.49230769 9.4375 2 C10.2109375 2.99 10.2109375 2.99 11 4 C9.53984709 3.71758359 8.08190207 3.42373386 6.625 3.125 C5.81289063 2.96257813 5.00078125 2.80015625 4.1640625 2.6328125 C2 2 2 2 0 0 Z " fill="#228CC5" transform="translate(441,51)"/>
<path d="M0 0 C0.66 1.32 1.32 2.64 2 4 C0.68 4.99 -0.64 5.98 -2 7 C-2.66 5.35 -3.32 3.7 -4 2 C-2.68 2 -1.36 2 0 2 C0 1.34 0 0.68 0 0 Z " fill="#1A77CB" transform="translate(503,37)"/>
<path d="M0 0 C2.97 0.495 2.97 0.495 6 1 C5.67 2.32 5.34 3.64 5 5 C3.68 5 2.36 5 1 5 C0.67 3.35 0.34 1.7 0 0 Z " fill="#1C88CF" transform="translate(227,235)"/>
<path d="M0 0 C-0.33 0.99 -0.66 1.98 -1 3 C-3.31 3.33 -5.62 3.66 -8 4 C-8.33 3.34 -8.66 2.68 -9 2 C-5.86501708 0.14223235 -3.62528568 -0.20140476 0 0 Z " fill="#0B83D3" transform="translate(71,116)"/>
<path d="M0 0 C1.65 0 3.3 0 5 0 C5.33 1.98 5.66 3.96 6 6 C5.01 6 4.02 6 3 6 C3 4.35 3 2.7 3 1 C2.01 0.67 1.02 0.34 0 0 Z " fill="#1D8ED1" transform="translate(244,246)"/>
<path d="M0 0 C0.95465783 2.16967689 1.14401212 3.56328793 0.3984375 5.82421875 C-0.35870385 7.5684743 -1.17609198 9.28627131 -2 11 C-2.66 11 -3.32 11 -4 11 C-3.52269162 9.5410574 -3.04308958 8.08286504 -2.5625 6.625 C-2.29566406 5.81289062 -2.02882813 5.00078125 -1.75390625 4.1640625 C-1 2 -1 2 0 0 Z " fill="#3CA0D8" transform="translate(293,241)"/>
<path d="M0 0 C1.32 0 2.64 0 4 0 C4 2.31 4 4.62 4 7 C3.01 7 2.02 7 1 7 C1.33 5.35 1.66 3.7 2 2 C1.34 2 0.68 2 0 2 C0 1.34 0 0.68 0 0 Z " fill="#0783D0" transform="translate(175,236)"/>
<path d="M0 0 C2.9375 0.375 2.9375 0.375 6 1 C6.33 1.66 6.66 2.32 7 3 C4.36 3.33 1.72 3.66 -1 4 C-0.67 2.68 -0.34 1.36 0 0 Z " fill="#1477D0" transform="translate(314,235)"/>
<path d="M0 0 C1.32 0 2.64 0 4 0 C4 0.66 4 1.32 4 2 C5.65 2 7.3 2 9 2 C8.67 2.99 8.34 3.98 8 5 C1.125 2.25 1.125 2.25 0 0 Z " fill="#2590C7" transform="translate(104,206)"/>
<path d="M0 0 C-0.33 0.66 -0.66 1.32 -1 2 C-3.06640625 2.4140625 -3.06640625 2.4140625 -5.5625 2.625 C-6.38878906 2.69976562 -7.21507812 2.77453125 -8.06640625 2.8515625 C-9.02353516 2.92503906 -9.02353516 2.92503906 -10 3 C-10 2.34 -10 1.68 -10 1 C-6.59437148 0.22157062 -3.49234244 -0.09978121 0 0 Z " fill="#309CD9" transform="translate(355,180)"/>
<path d="M0 0 C2.31 0.33 4.62 0.66 7 1 C7 1.99 7 2.98 7 4 C4.69 3.34 2.38 2.68 0 2 C0 1.34 0 0.68 0 0 Z " fill="#3097D8" transform="translate(442,138)"/>
<path d="M0 0 C0.33 0.66 0.66 1.32 1 2 C-0.65 3.65 -2.3 5.3 -4 7 C-4.66 6.34 -5.32 5.68 -6 5 C-4.06745228 2.9754262 -2.36841312 1.57894208 0 0 Z " fill="#0A83D1" transform="translate(66,120)"/>
<path d="M0 0 C4.67461851 -0.32613618 7.16674383 0.29417212 11 3 C10.67 3.66 10.34 4.32 10 5 C5.05 3.02 5.05 3.02 0 1 C0 0.67 0 0.34 0 0 Z " fill="#2D9DD8" transform="translate(403,89)"/>
<path d="M0 0 C1.65 0 3.3 0 5 0 C4.67 1.65 4.34 3.3 4 5 C2.68 4.34 1.36 3.68 0 3 C0 2.01 0 1.02 0 0 Z " fill="#1A8AD0" transform="translate(498,18)"/>
<path d="M0 0 C2.875 0.3125 2.875 0.3125 6 1 C6.66 1.99 7.32 2.98 8 4 C4 4 4 4 1.75 2 C1.1725 1.34 0.595 0.68 0 0 Z " fill="#157CD7" transform="translate(532,10)"/>
<path d="M0 0 C0 0.66 0 1.32 0 2 C-2.31 2 -4.62 2 -7 2 C-7.33 2.66 -7.66 3.32 -8 4 C-7.6875 2.0625 -7.6875 2.0625 -7 0 C-3.86650268 -1.04449911 -3.01031744 -0.93423645 0 0 Z " fill="#0467AE" transform="translate(251,244)"/>
<path d="M0 0 C0 0.66 0 1.32 0 2 C-1.65 2 -3.3 2 -5 2 C-5.33 2.66 -5.66 3.32 -6 4 C-6.33 2.68 -6.66 1.36 -7 0 C-4.3333581 -1.33332095 -2.83319697 -0.67102033 0 0 Z " fill="#136ECC" transform="translate(151,236)"/>
<path d="M0 0 C0.99 0.33 1.98 0.66 3 1 C2.01 2.32 1.02 3.64 0 5 C0.33 5.66 0.66 6.32 1 7 C-0.32 6.67 -1.64 6.34 -3 6 C-2.625 3.5625 -2.625 3.5625 -2 1 C-1.34 0.67 -0.68 0.34 0 0 Z " fill="#0872D9" transform="translate(44,224)"/>
<path d="M0 0 C0.99 0.33 1.98 0.66 3 1 C2.21654285 2.17219543 1.42297164 3.33763668 0.625 4.5 C0.18414062 5.1496875 -0.25671875 5.799375 -0.7109375 6.46875 C-1.13632813 6.9740625 -1.56171875 7.479375 -2 8 C-2.66 8 -3.32 8 -4 8 C-4 5 -4 5 -2.5625 3.4375 C-2.046875 2.963125 -1.53125 2.48875 -1 2 C-0.67 1.34 -0.34 0.68 0 0 Z " fill="#0978C0" transform="translate(100,167)"/>
<path d="M0 0 C-1.28519565 2.86697492 -2.57129254 4.97607712 -5 7 C-5.66 7 -6.32 7 -7 7 C-3.86206897 0 -3.86206897 0 0 0 Z " fill="#2B98D7" transform="translate(265,152)"/>
<path d="M0 0 C0.99 0 1.98 0 3 0 C3.125 5.75 3.125 5.75 2 8 C1.34 8 0.68 8 0 8 C0 5.36 0 2.72 0 0 Z " fill="#2898D4" transform="translate(420,151)"/>
<path d="M0 0 C2.97 0.495 2.97 0.495 6 1 C5.34 2.98 4.68 4.96 4 7 C3.34 6.67 2.68 6.34 2 6 C2 4.35 2 2.7 2 1 C1.34 0.67 0.68 0.34 0 0 Z " fill="#0A68CA" transform="translate(515,14)"/>
<path d="M0 0 C2 2 2 2 2 5 C2.99 5 3.98 5 5 5 C5 5.66 5 6.32 5 7 C2.13275314 6.42655063 1.1385485 6.1385485 -1 4 C-0.625 1.875 -0.625 1.875 0 0 Z " fill="#0A7FBC" transform="translate(338,249)"/>
<path d="M0 0 C0 0.99 0 1.98 0 3 C-0.66 3 -1.32 3 -2 3 C-2 3.99 -2 4.98 -2 6 C-2.66 6 -3.32 6 -4 6 C-4.33 4.35 -4.66 2.7 -5 1 C-3.35 0.67 -1.7 0.34 0 0 Z " fill="#2694D8" transform="translate(140,249)"/>
<path d="M0 0 C1.98 0 3.96 0 6 0 C5.67 0.99 5.34 1.98 5 3 C2.9375 3.6875 2.9375 3.6875 1 4 C0.67 2.68 0.34 1.36 0 0 Z " fill="#2C9FD9" transform="translate(192,238)"/>
<path d="M0 0 C0.6875 1.8125 0.6875 1.8125 1 4 C-0.4375 5.75 -0.4375 5.75 -2 7 C-2.33 5.35 -2.66 3.7 -3 2 C-2.01 1.34 -1.02 0.68 0 0 Z " fill="#1679C7" transform="translate(237,236)"/>
<path d="M0 0 C0.66 0 1.32 0 2 0 C1.67 1.65 1.34 3.3 1 5 C0.01 5 -0.98 5 -2 5 C-1.34 3.35 -0.68 1.7 0 0 Z " fill="#1D88C9" transform="translate(72,174)"/>
<path d="M0 0 C0.66 0 1.32 0 2 0 C2.33 0.99 2.66 1.98 3 3 C2.67 3.66 2.34 4.32 2 5 C1.34 5 0.68 5 0 5 C-0.33 5.66 -0.66 6.32 -1 7 C-1.625 4.625 -1.625 4.625 -2 2 C-1.34 1.34 -0.68 0.68 0 0 Z " fill="#1B74C9" transform="translate(17,112)"/>
<path d="M0 0 C0.99 0 1.98 0 3 0 C3.33 0.99 3.66 1.98 4 3 C1.525 4.485 1.525 4.485 -1 6 C-1.042721 4.33388095 -1.04063832 2.66617115 -1 1 C-0.67 0.67 -0.34 0.34 0 0 Z " fill="#1286D2" transform="translate(498,31)"/>
<path d="M0 0 C0 1.65 0 3.3 0 5 C-0.99 5 -1.98 5 -3 5 C-3 4.34 -3 3.68 -3 3 C-3.66 2.67 -4.32 2.34 -5 2 C-2 0 -2 0 0 0 Z " fill="#42A2D7" transform="translate(264,249)"/>
<path d="M0 0 C2.31 0.33 4.62 0.66 7 1 C6.67 1.66 6.34 2.32 6 3 C4.02 3 2.04 3 0 3 C0 2.01 0 1.02 0 0 Z " fill="#19659E" transform="translate(193,252)"/>
<path d="M0 0 C1.32 0 2.64 0 4 0 C4.33 1.32 4.66 2.64 5 4 C3.35 4 1.7 4 0 4 C0 2.68 0 1.36 0 0 Z " fill="#3495D4" transform="translate(304,248)"/>
<path d="M0 0 C-0.33 2.31 -0.66 4.62 -1 7 C-2.32 5.35 -3.64 3.7 -5 2 C-2 0 -2 0 0 0 Z " fill="#056ED3" transform="translate(227,244)"/>
<path d="M0 0 C1.32 0.99 2.64 1.98 4 3 C3.67 4.32 3.34 5.64 3 7 C1.68 5.35 0.36 3.7 -1 2 C-0.67 1.34 -0.34 0.68 0 0 Z " fill="#1C7DDF" transform="translate(42,239)"/>
<path d="M0 0 C2.31 0 4.62 0 7 0 C7.33 0.99 7.66 1.98 8 3 C5.36 2.67 2.72 2.34 0 2 C0 1.34 0 0.68 0 0 Z " fill="#34A2D8" transform="translate(125,231)"/>
<path d="M0 0 C0.66 0.66 1.32 1.32 2 2 C0.35 3.98 -1.3 5.96 -3 8 C-3.33 7.34 -3.66 6.68 -4 6 C-2.68 4.02 -1.36 2.04 0 0 Z " fill="#3197DA" transform="translate(216,152)"/>
<path d="M0 0 C2.375 0.6875 2.375 0.6875 5 2 C6.3125 4.625 6.3125 4.625 7 7 C3.00003714 5.66667905 2.16217663 3.5042173 0 0 Z " fill="#379EDC" transform="translate(532,12)"/>
</svg>
